<svg width="110" height="74" viewBox="0 0 110 74" fill="none" xmlns="http://www.w3.org/2000/svg">
<path d="M103.211 19.3894C102.271 19.3894 101.42 19.7698 100.806 20.3852C100.191 21.0006 99.8104 21.8511 99.8104 22.7898C99.8104 23.7298 100.191 24.5803 100.806 25.1944C101.422 25.8098 102.272 26.1903 103.211 26.1903C104.151 26.1903 105.001 25.8098 105.615 25.1944C106.231 24.579 106.611 23.7285 106.611 22.7898C106.611 21.8498 106.231 20.9993 105.615 20.3852C105 19.7698 104.15 19.3894 103.211 19.3894ZM5.80116 46.8917C4.86114 46.8917 4.0107 47.2721 3.39656 47.8875C2.78113 48.5029 2.40071 49.3534 2.40071 50.2921C2.40071 51.2321 2.78113 52.0826 3.39656 52.6967C4.012 53.3121 4.86243 53.6926 5.80116 53.6926C6.74119 53.6926 7.59163 53.3121 8.20576 52.6967C8.8212 52.0813 9.20162 51.2308 9.20162 50.2921C9.20162 49.3521 8.8212 48.5016 8.20576 47.8875C7.59033 47.2721 6.73989 46.8917 5.80116 46.8917ZM1.69958 46.1905C2.47991 45.4102 3.48096 44.8519 4.60146 44.6156V0.000640869H104.411V17.1146C105.531 17.3509 106.532 17.9092 107.312 18.6895C108.363 19.7399 109.012 21.1902 109.012 22.7911C109.012 24.3933 108.363 25.8436 107.312 26.8927C106.532 27.673 105.531 28.2313 104.411 28.4676V73.0826H4.60146V55.9686C3.48096 55.7323 2.47991 55.174 1.69958 54.3937C0.64919 53.3433 0 51.893 0 50.2921C0 48.6899 0.64919 47.2396 1.69958 46.1905ZM7.00217 44.6156C8.12267 44.8519 9.12372 45.4102 9.90405 46.1905C10.3922 46.6787 10.7921 47.2526 11.083 47.8875L20.5897 45.7634V45.6919C20.5897 44.0897 21.2389 42.6395 22.2893 41.5904C23.3397 40.54 24.79 39.8908 26.3909 39.8908C27.5477 39.8908 28.6241 40.2297 29.5291 40.8126L30.4756 39.8557C29.8705 38.9404 29.5187 37.8432 29.5187 36.6643C29.5187 35.0621 30.1679 33.6118 31.2183 32.5627C32.2687 31.5123 33.7189 30.8631 35.3198 30.8631C36.922 30.8631 38.3723 31.5123 39.4214 32.5627C40.4251 33.5664 41.0639 34.9375 41.1171 36.4566L49.8994 37.9835C50.1941 37.2473 50.6342 36.5864 51.1861 36.0346C52.2364 34.9842 53.6867 34.335 55.2876 34.335C56.8898 34.335 58.3401 34.9842 59.3892 36.0346C59.9904 36.6357 60.4604 37.368 60.7525 38.186L75.0256 36.2436C75.1282 34.8089 75.7527 33.5196 76.7096 32.5614C77.76 31.511 79.2103 30.8618 80.8112 30.8618C82.4134 30.8618 83.8637 31.511 84.9128 32.5614C84.9453 32.5939 84.9764 32.625 85.0076 32.6588L97.7525 24.7647C97.5292 24.1479 97.4084 23.4844 97.4084 22.7911C97.4084 21.1889 98.0576 19.7386 99.108 18.6895C99.8883 17.9092 100.889 17.3509 102.01 17.1146V2.40135H7.00087V44.6169L7.00217 44.6156ZM11.6036 50.2207V50.2921C11.6036 51.8943 10.9544 53.3446 9.90405 54.3937C9.12372 55.174 8.12267 55.7323 7.00217 55.9686V70.6819H102.011V28.4663C100.891 28.23 99.8896 27.6717 99.1093 26.8914C99.0768 26.8589 99.0457 26.8278 99.0145 26.7953L86.2696 34.6882C86.4929 35.3036 86.6137 35.9684 86.6137 36.6617C86.6137 38.2639 85.9645 39.7142 84.9141 40.7633C83.8637 41.8137 82.4134 42.4629 80.8125 42.4629C79.2103 42.4629 77.76 41.8137 76.7109 40.7633C76.1098 40.1621 75.6398 39.4299 75.3476 38.6119L61.0745 40.5543C60.9719 41.989 60.3474 43.2783 59.3905 44.2365C58.3401 45.2869 56.8898 45.936 55.2889 45.936C53.6867 45.936 52.2364 45.2869 51.1874 44.2365C50.1837 43.2328 49.5449 41.8617 49.4917 40.3426L40.7094 38.8157C40.4147 39.5519 39.9745 40.2128 39.4227 40.7646C38.3723 41.815 36.922 42.4642 35.3211 42.4642C34.1643 42.4642 33.0879 42.1253 32.183 41.5423L31.2364 42.4992C31.8415 43.4146 32.1933 44.5117 32.1933 45.6907C32.1933 47.2929 31.5442 48.7431 30.4938 49.7922C29.4434 50.8426 27.9931 51.4918 26.3922 51.4918C24.79 51.4918 23.3397 50.8426 22.2906 49.7922C21.8024 49.304 21.4025 48.7302 21.1117 48.0953L11.6049 50.2194L11.6036 50.2207ZM82.0135 45.592V67.0996H79.6128V45.592H82.0135ZM56.4886 49.0651V67.0996H54.0879V49.0651H56.4886ZM36.5195 45.592V67.0996H34.1188V45.592H36.5195ZM27.5906 55.0766V67.0996H25.1899V55.0766H27.5906ZM80.8125 33.2626C79.8725 33.2626 79.022 33.643 78.4079 34.2584C77.7925 34.8738 77.412 35.7243 77.412 36.663C77.412 37.603 77.7925 38.4535 78.4079 39.0676C79.0233 39.683 79.8738 40.0635 80.8125 40.0635C81.7525 40.0635 82.603 39.683 83.2171 39.0676C83.8325 38.4522 84.213 37.6017 84.213 36.663C84.213 35.723 83.8325 34.8725 83.2171 34.2584C82.6017 33.643 81.7512 33.2626 80.8125 33.2626ZM55.2876 36.7357C54.3476 36.7357 53.4972 37.1161 52.883 37.7316C52.2676 38.347 51.8872 39.1974 51.8872 40.1362C51.8872 41.0762 52.2676 41.9266 52.883 42.5408C53.4985 43.1562 54.3489 43.5366 55.2876 43.5366C56.2277 43.5366 57.0781 43.1562 57.6922 42.5408C58.3077 41.9254 58.6881 41.0749 58.6881 40.1362C58.6881 39.1961 58.3077 38.3457 57.6922 37.7316C57.0768 37.1161 56.2264 36.7357 55.2876 36.7357ZM35.3198 33.2626C34.3798 33.2626 33.5294 33.643 32.9152 34.2584C32.2998 34.8738 31.9194 35.7243 31.9194 36.663C31.9194 37.603 32.2998 38.4535 32.9152 39.0676C33.5307 39.683 34.3811 40.0635 35.3198 40.0635C36.2599 40.0635 37.1103 39.683 37.7244 39.0676C38.3399 38.4522 38.7203 37.6017 38.7203 36.663C38.7203 35.723 38.3399 34.8725 37.7244 34.2584C37.109 33.643 36.2586 33.2626 35.3198 33.2626ZM26.3896 42.2915C25.4496 42.2915 24.5991 42.6719 23.985 43.2873C23.3695 43.9028 22.9891 44.7532 22.9891 45.6919C22.9891 46.632 23.3695 47.4824 23.985 48.0965C24.6004 48.712 25.4509 49.0924 26.3896 49.0924C27.3296 49.0924 28.1801 48.712 28.7942 48.0965C29.4096 47.4811 29.79 46.6307 29.79 45.6919C29.79 44.7519 29.4096 43.9015 28.7942 43.2873C28.1788 42.6719 27.3283 42.2915 26.3896 42.2915Z" fill="black"/>
</svg>
