<svg width="53" height="74" viewBox="0 0 53 74" fill="none" xmlns="http://www.w3.org/2000/svg">
<path d="M3.9258 18.8453H12.042V14.2127C12.042 10.3033 13.6403 6.74962 16.2163 4.17493C18.7909 1.60025 22.3446 0.000640869 26.254 0.000640869C30.1635 0.000640869 33.7171 1.59895 36.2931 4.17493C38.8678 6.74962 40.4674 10.3033 40.4674 14.2127V18.8453H49.7262C50.5649 36.924 51.4024 55.0039 52.2372 73.0826H0.273438L2.78452 18.8453H3.9271H3.9258ZM3.15584 62.5306H49.3522L47.441 21.2447H40.4661V28.4248H32.5174V26.0241H38.0654V21.2447H14.4401V26.0241H19.9894V28.4248H12.0407V21.2447H5.06705L3.15584 62.5306ZM49.4639 64.9314H3.04549L2.77932 70.6832H49.7313L49.4652 64.9314H49.4639ZM14.4414 18.8453H38.0667V14.2127C38.0667 10.9655 36.7372 8.01295 34.5961 5.87062C32.4551 3.72959 29.5013 2.40005 26.254 2.40005C23.0068 2.40005 20.053 3.72959 17.9119 5.87062C15.7709 8.01165 14.4414 10.9655 14.4414 14.2127V18.8453Z" fill="black"/>
</svg>
