<svg width="69" height="74" viewBox="0 0 69 74" fill="none" xmlns="http://www.w3.org/2000/svg">
<path d="M3.23861 70.6799H65.7777V62.7442H62.0578H60.8296H6.55986H3.23861V70.6799ZM45.6944 33.2204H53.0419V60.3448H59.6L58.5457 21.7453H10.0733L9.01899 60.3448H21.7249V35.6198H16.7768V33.2191H24.1244V60.3435H36.1837V35.6185H31.2356V33.2178H38.5831V60.3422H50.6425V35.6172H45.6944V33.2165V33.2204ZM14.058 26.2831H54.5584V28.6838H14.058V26.2831ZM9.81749 19.3459H58.7989L61.7346 8.74589H6.88186L9.81749 19.3459ZM7.70893 20.6962L4.39936 8.74719H0.837891V0H68.1771V8.74719H66.9774H64.2183L60.9088 20.6962L61.9929 60.3474H68.1784V73.0832H66.9787H0.84049V60.3474H6.62738C6.98963 47.1312 7.35058 33.9137 7.71153 20.6975L7.70893 20.6962ZM3.23861 6.34648H3.73459H64.8818H65.7764V2.39941H3.23731V6.34648H3.23861Z" fill="black"/>
</svg>
