<svg width="121" height="73" viewBox="0 0 121 73" fill="none" xmlns="http://www.w3.org/2000/svg">
<path fill-rule="evenodd" clip-rule="evenodd" d="M80.7681 53.2667V60.9207H112.942V53.2667H80.7681ZM21.5568 43.2134H12.0981C9.00273 43.2134 6.18788 41.9474 4.14942 39.9077C2.11096 37.8692 0.84375 35.0543 0.84375 31.959C0.84375 28.8637 2.10963 26.0488 4.14809 24.0103C6.18785 21.9719 9.00146 20.7059 12.0968 20.7059H21.5568C21.1984 20.4255 20.8583 20.123 20.5363 19.801C18.4978 17.7625 17.2306 14.9476 17.2306 11.8523C17.2306 8.75694 18.4965 5.94205 20.5349 3.90359C22.5747 1.86513 25.3883 0.599213 28.4837 0.599213H62.1143H115.34H120.155V2.99992H115.34V20.7072H120.155V23.1079H115.34H103.766H98.9519V40.8153H103.766H115.34H120.155V43.216H115.34V60.9233H120.155V63.324H115.34H80.7655V72.484L73.9438 67.0685L67.1221 72.484V63.324H62.113H28.4823C25.387 63.324 22.5721 62.0581 20.5337 60.0183C18.4952 57.9798 17.228 55.1649 17.228 52.0696C17.228 48.9743 18.4939 46.1594 20.5323 44.1209C20.8543 43.7989 21.1946 43.4977 21.5529 43.216L21.5568 43.2134ZM28.4863 23.1053H12.0981C9.66491 23.1053 7.45118 24.1025 5.84638 25.7073C4.24158 27.3121 3.24442 29.5258 3.24442 31.959C3.24442 34.3922 4.24158 36.6059 5.84638 38.2107C7.45118 39.8155 9.66491 40.8127 12.0981 40.8127H28.4863H38.8006L38.7915 40.8049L38.6863 40.7205L38.5812 40.6348L38.4773 40.5478L38.3747 40.4595L38.2734 40.3699L38.1735 40.279L38.0735 40.1881L37.9748 40.0959L37.8775 40.0025L37.7813 39.9077L37.6866 39.8116L37.5931 39.7142L37.5009 39.6155L37.4087 39.5156L37.3178 39.4156L37.2283 39.3143L37.1399 39.2117L37.053 39.1079L36.9673 39.0027L36.8829 38.8975L36.7998 38.7911L36.718 38.6833L36.6375 38.5742L36.5583 38.4639L36.4804 38.3535L36.4038 38.2419L36.3285 38.1289L36.2545 38.0146L36.1818 37.9004L36.1103 37.7848L36.0402 37.668L35.9714 37.5511L35.9039 37.433L35.8377 37.3135L35.7728 37.1941L35.7091 37.0733L35.6481 36.9513L35.5884 36.8292L35.53 36.7059L35.4729 36.5812L35.417 36.4566L35.3625 36.3306L35.3092 36.2047L35.2573 36.0775L35.208 35.9489L35.1599 35.8204L35.1132 35.6905L35.0677 35.5607L35.0236 35.4296L34.982 35.2984L34.9418 35.166L34.9028 35.0336L34.8652 34.8998L34.8289 34.7661L34.7951 34.6311L34.7626 34.496L34.7315 34.3597L34.7029 34.2234L34.6756 34.0857L34.6496 33.9481L34.625 33.8092L34.6029 33.6703L34.5821 33.53L34.5627 33.3898L34.5458 33.2496L34.5302 33.1081L34.5172 32.9665L34.5055 32.825L34.4951 32.6822L34.4873 32.5394L34.4809 32.3953L34.4757 32.2511L34.4731 32.107L34.4718 31.9616C34.4718 28.8663 35.7377 26.0514 37.7761 24.0129C38.0981 23.6909 38.4383 23.3897 38.7967 23.1079H28.4823L28.4863 23.1053ZM56.8299 59.1549C56.9156 59.2185 57.0013 59.2808 57.0896 59.3418L57.1779 59.4016L57.2661 59.4613C57.3258 59.5002 57.3856 59.5392 57.4453 59.5768C57.5064 59.6145 57.566 59.6522 57.6284 59.6885C57.6894 59.7249 57.7517 59.7599 57.8141 59.795L57.9076 59.8469C57.9699 59.8807 58.0335 59.9144 58.0971 59.9469L58.1932 59.9949L58.2893 60.0417L58.3867 60.0884L58.484 60.1339L58.5827 60.178L58.6814 60.2208L58.7814 60.2624L58.8814 60.3026L58.9826 60.3416L59.0839 60.3792L59.1852 60.4156L59.2877 60.4507L59.3903 60.4857L59.4942 60.5182L59.5981 60.5506L59.7019 60.5818L59.8071 60.6117L59.9123 60.6402L60.0187 60.6675L60.1252 60.6935L60.2317 60.7181L60.3394 60.7415L60.4471 60.7636L60.5563 60.7843L60.6653 60.8038L60.7743 60.8207L60.8834 60.8376L60.9938 60.8519L61.1041 60.8648L61.2145 60.8765L61.3262 60.8869L61.4379 60.896L61.5495 60.9038L61.6625 60.9103L61.7754 60.9155L61.8884 60.9194L62.0013 60.922L62.1156 60.9233H67.1247V53.2693H62.1156V50.8686H112.941V43.2147H103.766H98.9519H62.1143C59.6811 43.2147 57.4674 44.2118 55.8626 45.8166C54.2578 47.4214 53.2607 49.6352 53.2607 52.0683L53.2619 52.1826L53.2645 52.2955L53.2685 52.4085L53.2736 52.5214L53.2801 52.6344L53.2879 52.7461L53.297 52.8577L53.3074 52.9694L53.3191 53.0798L53.3321 53.1901L53.3463 53.3005L53.3632 53.4108L53.3801 53.5199L53.3996 53.629L53.4204 53.738L53.4424 53.8458L53.4658 53.9536L53.4905 54.06L53.5164 54.1665L53.5437 54.273L53.5723 54.3781L53.6021 54.4833L53.6333 54.5885L53.6657 54.6923L53.6982 54.7962L53.7332 54.8988L53.7683 55.0014L53.8047 55.1026L53.8423 55.2039L53.8813 55.3052L53.9215 55.4052L53.963 55.5051L54.0059 55.6038L54.05 55.7025L54.0955 55.7999L54.1423 55.8972L54.189 55.9933L54.237 56.0894L54.2864 56.1842L54.337 56.279L54.389 56.3724L54.4421 56.4659L54.4967 56.5581L54.5512 56.6503L54.607 56.7412L54.6642 56.8308L54.7226 56.9204L54.7823 57.0087L54.8434 57.0969L54.9044 57.1839L56.8312 59.1562L56.8299 59.1549ZM45.7301 43.2134H28.4875C26.0544 43.2134 23.8406 44.2105 22.2358 45.8153C20.631 47.4201 19.6339 49.6339 19.6339 52.067C19.6339 54.5002 20.631 56.7139 22.2358 58.3187C23.8406 59.9235 26.0544 60.9207 28.4875 60.9207H55.19L55.1732 60.9077L55.1562 60.8947L55.1394 60.8817L55.1225 60.8687L55.1057 60.8558L55.0887 60.8428L55.0732 60.8311L55.0719 60.8298L55.055 60.8168L55.0381 60.8038L55.0213 60.7908L55.0043 60.7778L54.9875 60.7649L54.9706 60.7519L54.9667 60.748L54.955 60.7376L54.9382 60.7246L54.9213 60.7103L54.9044 60.6973L54.8875 60.6831L54.8706 60.6688L54.8602 60.661L54.8538 60.6558L54.8382 60.6415L54.8213 60.6272L54.8057 60.613L54.7901 60.5987L54.7745 60.5844L54.7447 60.5584L54.7421 60.5558L54.7265 60.5415L54.7109 60.5273L54.6954 60.513L54.6798 60.4987L54.6642 60.4844L54.6486 60.4701L54.633 60.4558L54.6174 60.4416L54.6018 60.4273L54.5863 60.413L54.5707 60.3987L54.5603 60.3896L54.5551 60.3844L54.5395 60.3702L54.524 60.3559L54.5084 60.3416L54.4928 60.3273L54.4772 60.313L54.4617 60.2987L54.4461 60.2845L54.4305 60.2702L54.4149 60.2559L54.3838 60.226L54.3682 60.2118L54.363 60.2079L54.3526 60.1975L54.337 60.1832L54.3058 60.1533L54.2902 60.139L54.2747 60.1248L54.2643 60.1144L54.2591 60.1092L54.2435 60.0936L54.2279 60.0793L54.2123 60.0637L54.1968 60.0482L54.1812 60.0326L54.1656 60.0183L54.0708 59.9222L53.9774 59.8248L53.8852 59.7262L53.7929 59.6262L53.7021 59.5262C53.6424 59.4587 53.5827 59.3912 53.5255 59.3224C53.4671 59.2536 53.41 59.1834 53.3528 59.1133L53.2685 59.0082L53.1853 58.9017L53.1036 58.7939C53.0218 58.6849 52.9426 58.5758 52.866 58.4641L52.7893 58.3525L52.7141 58.2395L52.64 58.1253C52.5907 58.0487 52.5426 57.972 52.4959 57.8954L52.4258 57.7786L52.357 57.6617L52.2895 57.5436L52.2232 57.4241L52.1583 57.3047L52.096 57.1839L52.035 57.0619L51.9752 56.9398L51.9168 56.8165L51.8597 56.6918L51.8039 56.5672L51.7493 56.4413L51.6961 56.3153L51.6455 56.1881L51.5961 56.0595C51.5636 55.9738 51.5312 55.8881 51.5013 55.8012L51.4559 55.6713L51.4117 55.5402L51.3702 55.409L51.33 55.2766L51.291 55.1442L51.2534 55.0104L51.2183 54.8767L51.1845 54.7417L51.1521 54.6066L51.1209 54.4703L51.0923 54.334L51.0651 54.1964L51.0391 54.0587L51.0144 53.9198L50.9924 53.7809L50.9716 53.6407L50.9521 53.5004L50.9352 53.3602L50.9196 53.2187L50.9067 53.0772L50.895 52.9356L50.8846 52.7928L50.8768 52.65L50.8703 52.5059L50.8651 52.3617L50.8625 52.2176L50.8613 52.0722C50.8613 48.9769 52.1271 46.162 54.1656 44.1235C54.4876 43.8015 54.8278 43.5003 55.1861 43.2186H45.7261L45.7301 43.2134ZM55.19 2.99862H28.4875C26.0544 2.99862 23.8406 3.99578 22.2358 5.60057C20.631 7.20537 19.6339 9.41911 19.6339 11.8523C19.6339 14.2854 20.631 16.4992 22.2358 18.104C23.8406 19.7088 26.0544 20.7059 28.4875 20.7059H45.7301H55.19L55.181 20.6981L55.1744 20.693L55.0913 20.6267L55.0758 20.615L55.0745 20.6137C55.0044 20.5579 54.9356 20.5008 54.868 20.4424L54.8615 20.4372L54.7655 20.3541L54.7641 20.3528C54.6992 20.2969 54.6356 20.2398 54.5733 20.1827L54.5629 20.1736L54.4629 20.0814L54.3695 19.9931L54.3643 19.9879L54.3539 19.9775C54.2929 19.9191 54.2318 19.8594 54.1708 19.7984L54.076 19.7023L53.9826 19.6049L53.8903 19.5062L53.7981 19.4063L53.7073 19.3063C53.6476 19.2388 53.5878 19.1712 53.5307 19.1024C53.4722 19.0336 53.4152 18.9635 53.358 18.8934L53.2736 18.7882L53.1905 18.6818L53.1087 18.574C53.0269 18.4649 52.9478 18.3559 52.8712 18.2442L52.7945 18.1325L52.7192 18.0196L52.6452 17.9053C52.5959 17.8287 52.5478 17.7521 52.5011 17.6755L52.431 17.5587L52.3621 17.4418L52.2947 17.3237L52.2284 17.2042L52.1635 17.0847L52.1012 16.964L52.0401 16.842L51.9804 16.7199L51.922 16.5966L51.8649 16.4719L51.8091 16.3473L51.7545 16.2213L51.7013 16.0954L51.6506 15.9681L51.6013 15.8396C51.5688 15.7539 51.5364 15.6682 51.5065 15.5812L51.4611 15.4514L51.4169 15.3203L51.3754 15.1891L51.3352 15.0567L51.2962 14.9242L51.2585 14.7905L51.2235 14.6568L51.1897 14.5217L51.1573 14.3867L51.1261 14.2504L51.0975 14.1141L51.0703 13.9764L51.0443 13.8388L51.0196 13.6999L50.9976 13.5609L50.9768 13.4207L50.9573 13.2805L50.9404 13.1403L50.9248 12.9987L50.9118 12.8572L50.9002 12.7157L50.8898 12.5729L50.882 12.4301L50.8755 12.2859L50.8703 12.1418L50.8677 11.9977L50.8665 11.8523C50.8665 8.75694 52.1323 5.94205 54.1708 3.90359C54.4928 3.58159 54.833 3.28037 55.1913 2.99862H55.19ZM62.1182 10.6526H112.943V2.99862H62.1182C59.685 2.99862 57.4713 3.99578 55.8665 5.60057C54.2617 7.20537 53.2645 9.41911 53.2645 11.8523L53.2659 11.9665L53.2685 12.0795L53.2723 12.1925L53.2775 12.3054L53.284 12.4184L53.2918 12.53L53.3009 12.6417L53.3113 12.7534L53.323 12.8637L53.3359 12.9741L53.3502 13.0844L53.3671 13.1948L53.384 13.3039L53.4034 13.4129L53.4242 13.522L53.4463 13.6298L53.4697 13.7375L53.4943 13.844L53.5203 13.9505L53.5476 14.0569L53.5761 14.1621L53.606 14.2673L53.6372 14.3724L53.6696 14.4763L53.7021 14.5802L53.7372 14.6827L53.7722 14.7853L53.8085 14.8866L53.8462 14.9879L53.8852 15.0891L53.9254 15.1891L53.967 15.2891L54.0098 15.3878L54.054 15.4864L54.0994 15.5838L54.1461 15.6812L54.1929 15.7773L54.2409 15.8734L54.2902 15.9681L54.3409 16.0629L54.3928 16.1564L54.4461 16.2499L54.5006 16.3421L54.5551 16.4343L54.611 16.5251L54.6681 16.6147L54.7265 16.7043L54.7863 16.7926L54.8472 16.8809L54.9083 16.9679L56.8351 18.9401C56.9208 19.0038 57.0065 19.0661 57.0948 19.1271L57.1831 19.1868L57.2713 19.2466C57.331 19.2855 57.3908 19.3245 57.4505 19.3621C57.5116 19.3998 57.5712 19.4374 57.6336 19.4738C57.6946 19.5101 57.7569 19.5452 57.8193 19.5802L57.9127 19.6322C57.975 19.6659 58.0387 19.6997 58.1023 19.7321L58.1984 19.7802L58.2945 19.8269L58.3919 19.8737L58.4892 19.9191L58.5879 19.9633L58.6866 20.0061L58.7866 20.0477L58.8865 20.0879L58.9878 20.1269L59.089 20.1645L59.1904 20.2009L59.2929 20.2359L59.3955 20.271L59.4994 20.3034L59.6032 20.3359L59.7071 20.3671L59.8123 20.3969L59.9175 20.4255L60.0239 20.4527L60.1304 20.4787L60.2369 20.5034L60.3446 20.5268L60.4523 20.5488L60.5615 20.5696L60.6705 20.5891L60.7795 20.606L60.8886 20.6228L60.999 20.6371L61.1093 20.6501L61.2197 20.6618L61.3314 20.6722L61.4431 20.6813L61.5547 20.6891L61.6677 20.6955L61.7806 20.7007L61.8936 20.7046L62.0065 20.7072L62.1208 20.7085H98.9585H103.773H112.947V13.0546H62.1221V10.6539L62.1182 10.6526ZM45.7301 30.7606H96.5551V23.1066H62.1182H45.7301C43.2969 23.1066 41.0831 24.1038 39.4783 25.7086C37.8735 27.3134 36.8764 29.5271 36.8764 31.9603L36.8777 32.0746L36.8803 32.1875L36.8841 32.3005L36.8893 32.4134L36.8959 32.5264L36.9037 32.6381L36.9127 32.7497L36.9231 32.8614L36.9348 32.9717L36.9478 33.0821L36.9621 33.1925L36.9789 33.3028L36.9958 33.4119L37.0153 33.521L37.0361 33.63L37.0582 33.7378L37.0815 33.8455L37.1062 33.952L37.1322 34.0585L37.1594 34.1649L37.188 34.2701L37.2179 34.3753L37.249 34.4804L37.2815 34.5843L37.3139 34.6882L37.349 34.7908L37.384 34.8933L37.4204 34.9946L37.4581 35.0959L37.497 35.1972L37.5373 35.2971L37.5788 35.3971L37.6216 35.4958L37.6658 35.5945L37.7112 35.6918L37.7579 35.7892L37.8047 35.8853L37.8527 35.9814L37.9021 36.0762L37.9527 36.1709L38.0047 36.2644L38.0579 36.3579L38.1124 36.4501L38.167 36.5423L38.2228 36.6332L38.2799 36.7241L38.3384 36.8136L38.3981 36.9019L38.4591 36.9902L38.5201 37.0772L38.5824 37.1642L38.6461 37.2499L38.711 37.3343L38.7759 37.4187L38.8421 37.5018L38.9096 37.5849L38.9785 37.6667L39.0473 37.7472L39.1174 37.8277L39.1888 37.9069L39.2602 37.9848L39.3329 38.0627L39.4069 38.1393L39.4822 38.2146L39.5576 38.2899L39.6341 38.3639L39.7121 38.4366L39.79 38.508L39.8691 38.5794L39.9497 38.6496L40.0301 38.7184L40.112 38.7872L40.195 38.8547L40.2781 38.9209L40.3625 38.9858L40.447 39.0508C40.5326 39.1144 40.6183 39.1767 40.7066 39.2377L40.7949 39.2974L40.8832 39.3572C40.9429 39.3961 41.0026 39.4351 41.0624 39.4727C41.1234 39.5104 41.1831 39.548 41.2454 39.5844C41.3065 39.6207 41.3688 39.6558 41.4311 39.6908L41.5246 39.7428C41.5869 39.7765 41.6505 39.8103 41.7141 39.8428L41.8103 39.8908L41.9063 39.9375L42.0037 39.9843L42.1011 40.0297L42.1998 40.0739L42.2984 40.1167L42.3984 40.1583L42.4984 40.1985L42.5996 40.2375L42.7009 40.2751L42.8022 40.3115L42.9047 40.3465L43.0073 40.3816L43.1112 40.4141L43.2151 40.4465L43.3189 40.4777L43.4241 40.5075L43.5293 40.5361L43.6357 40.5634L43.7422 40.5893L43.8487 40.614L43.9564 40.6374L44.0642 40.6594L44.1733 40.6802L44.2823 40.6997L44.3914 40.7166L44.5005 40.7335L44.6108 40.7477L44.7212 40.7607L44.8315 40.7724L44.9432 40.7828L45.0549 40.7919L45.1665 40.7997L45.2795 40.8062L45.3925 40.8114L45.5054 40.8153L45.6184 40.8178L45.7327 40.8191H62.1208H96.5577V33.1652H45.7327V30.7645L45.7301 30.7606ZM55.4303 17.6379L55.5004 17.7171L55.5718 17.7963L55.6431 17.8742L55.7159 17.9521L55.7899 18.0287L55.8652 18.104L55.9405 18.1793L56.0171 18.2533L56.095 18.326L56.1729 18.3974L56.2521 18.4688L56.3326 18.5389L56.4131 18.6078L56.4949 18.6766L56.578 18.7441L56.6611 18.8103L56.7455 18.8752L56.8299 18.9401L55.4303 17.6366V17.6379ZM55.4303 57.8526L55.5004 57.9318L55.5718 58.011L55.6431 58.0889L55.7159 58.1668L55.7899 58.2434L55.8652 58.3187L55.9405 58.394L56.0171 58.468L56.095 58.5407L56.1729 58.6122L56.2521 58.6836L56.3326 58.7537L56.4131 58.8225L56.4949 58.8913L56.578 58.9588L56.6611 59.025L56.7455 59.09L56.8299 59.1549L55.4303 57.8513V57.8526Z" fill="black"/>
</svg>
