<svg width="98" height="74" viewBox="0 0 98 74" fill="none" xmlns="http://www.w3.org/2000/svg">
<path d="M19.2044 0.00129838H78.0535C83.3418 0.00129838 88.1419 2.15791 91.6189 5.63497C95.0973 9.11333 97.2526 13.9134 97.2526 19.2004V59.8839C97.2526 63.5194 95.7699 66.8185 93.3796 69.2102C90.9879 71.6018 87.6887 73.0832 84.0533 73.0832H82.4264C79.1895 73.0832 76.2098 71.9355 73.8999 69.9879C71.594 68.0429 69.962 65.2994 69.4166 62.1067L67.1743 48.9853C66.9757 47.8193 66.3823 46.8196 65.5449 46.1133C64.71 45.4096 63.6259 44.9941 62.4417 44.9941H34.8161C33.632 44.9941 32.5478 45.4096 31.713 46.1133C30.8755 46.8196 30.2822 47.8194 30.0822 48.984L27.8399 62.1054C27.2946 65.2994 25.6625 68.0416 23.3566 69.9866C21.0481 71.9342 18.0683 73.0819 14.8301 73.0819H13.2033C9.5678 73.0819 6.2673 71.5992 3.87699 69.2089C1.48667 66.8186 0.00390625 63.5181 0.00390625 59.8826V19.1992C0.00390625 13.9108 2.16053 9.11073 5.6376 5.63367C9.11466 2.15661 13.9161 0 19.2031 0L19.2044 0.00129838ZM68.7532 19.0511H85.253V21.4518H68.7532V19.0511ZM28.5047 21.4518H21.4545V28.502H19.0537V21.4518H12.0036V19.0511H19.0537V12.0009H21.4545V19.0511H28.5047V21.4518ZM78.0535 2.402H19.2044C14.5782 2.402 10.3793 4.28855 7.33459 7.33195C4.29119 10.3754 2.40461 14.5756 2.40461 19.2017V59.8852C2.40461 62.8585 3.61862 65.5591 5.57398 67.5158C7.53064 69.4724 10.23 70.6851 13.2046 70.6851H14.8314C17.4905 70.6851 19.9289 69.749 21.8115 68.1611C23.6968 66.5706 25.0315 64.3244 25.4795 61.7042L27.7217 48.5828C28.0191 46.843 28.9098 45.3485 30.1679 44.2865C31.4286 43.2218 33.0542 42.5947 34.8174 42.5947H62.443C64.2062 42.5947 65.8318 43.2218 67.0926 44.2865C68.3507 45.3472 69.2413 46.843 69.5374 48.5828L71.7797 61.7042C72.2276 64.3231 73.5624 66.5706 75.4476 68.1611C77.3303 69.749 79.7686 70.6851 82.4277 70.6851H84.0546C87.0266 70.6851 89.7272 69.4711 91.6839 67.5145C93.6405 65.5578 94.8545 62.8572 94.8545 59.8852V19.2017C94.8545 14.5769 92.968 10.3767 89.9233 7.33325C86.8799 4.28985 82.6796 2.402 78.0548 2.402H78.0535Z" fill="black"/>
</svg>
