<svg width="74" height="74" viewBox="0 0 74 74" fill="none" xmlns="http://www.w3.org/2000/svg">
<path d="M13.0417 35.3419H20.2321L28.0445 9.83393H30.3322L45.335 58.8218L52.5254 35.3419H61.4817V37.7426H54.2912L46.4802 63.2506H44.1924L29.1896 14.2627L21.9992 37.7426H13.0443V35.3419H13.0417ZM37.2604 0C47.3501 0 56.4868 4.0899 63.0994 10.7025C69.7121 17.3152 73.802 26.4506 73.802 36.5416C73.802 46.6313 69.7121 55.768 63.0994 62.3807C56.4868 68.9933 47.3514 73.0832 37.2604 73.0832C27.1707 73.0832 18.0352 68.9933 11.4213 62.3807C4.80865 55.768 0.71875 46.6326 0.71875 36.5416C0.71875 26.4519 4.80865 17.3165 11.4213 10.7025C18.034 4.0899 27.1694 0 37.2604 0ZM61.4025 12.3995C55.2248 6.22184 46.6892 2.39941 37.2604 2.39941C27.8328 2.39941 19.2973 6.22054 13.1183 12.3995C6.9406 18.5772 3.11816 27.1128 3.11816 36.5416C3.11816 45.9692 6.9393 54.5047 13.1183 60.6837C19.296 66.8614 27.8315 70.6838 37.2604 70.6838C46.6879 70.6838 55.2235 66.8627 61.4025 60.6837C67.5802 54.506 71.4026 45.9705 71.4026 36.5416C71.4026 27.1141 67.5815 18.5785 61.4025 12.3995ZM52.6046 25.7118H47.6513V30.6651H45.2506V25.7118H40.2973V23.3111H45.2506V18.3578H47.6513V23.3111H52.6046V25.7118Z" fill="black"/>
</svg>
