<svg width="100" height="128" viewBox="0 0 100 128" fill="none" xmlns="http://www.w3.org/2000/svg">
<path fill-rule="evenodd" clip-rule="evenodd" d="M50.5411 0.375244L100 13.6291V70.633C100 79.5581 97.7809 87.8691 93.6162 95.0797V95.0858C89.4637 102.278 83.3718 108.358 75.6323 112.827V112.833L65.9168 118.444V125.898L60.4815 121.581L50 127.631L39.5185 121.581L34.0832 125.898V118.444L24.3677 112.833V112.827C16.6282 108.358 10.5362 102.278 6.38375 95.0858C2.21911 87.8752 0 79.5642 0 70.633V13.6291L49.4589 0.375244H50.535L50.5411 0.375244Z" fill="#FF7955"/>
<path d="M95.8371 16.821L50.0078 4.53986L4.17853 16.821V70.633C4.17853 78.8285 6.2031 86.4343 9.9908 93.0004C13.7907 99.5787 19.3597 105.136 26.4487 109.233H26.4548L34.091 113.641V88.0697L24.8193 86.1729C23.7493 85.954 22.813 85.4433 22.0835 84.7198L22.0774 84.7137C21.3478 83.9841 20.8432 83.0479 20.6243 81.9778L18.2167 70.2135C18.1985 70.1284 18.1742 70.0493 18.1498 69.9825C18.1255 69.9277 18.089 69.8609 18.0404 69.7818L11.4256 59.7563C10.8176 58.8382 10.5137 57.8108 10.5137 56.7833C10.5137 55.7558 10.8176 54.7283 11.4256 53.8103L18.0404 43.7847H18.0465C18.089 43.7179 18.1255 43.651 18.1559 43.5841C18.1863 43.5172 18.2046 43.4382 18.2228 43.3531L20.6304 31.5887C20.8493 30.5187 21.36 29.5824 22.0835 28.8528L22.0895 28.8468C22.8191 28.1172 23.7554 27.6126 24.8254 27.3937L36.5898 24.9861C36.6749 24.9679 36.7539 24.9435 36.8208 24.9192C36.8755 24.8949 36.9424 24.8584 37.0214 24.8098L47.047 18.195C47.965 17.587 48.9925 17.283 50.02 17.283C51.0474 17.283 52.0749 17.587 52.993 18.195L63.0185 24.8098C63.0975 24.8645 63.1644 24.901 63.2192 24.9192C63.286 24.9496 63.3651 24.9679 63.4502 24.9861L75.2145 27.3937C76.2906 27.6126 77.233 28.1233 77.9565 28.8468C78.68 29.5703 79.1907 30.5126 79.4096 31.5887L81.8172 43.3531C81.8354 43.4382 81.8597 43.5172 81.884 43.5841C81.9144 43.651 81.9448 43.7179 81.9935 43.7847H81.9995L88.6143 53.8103C89.2223 54.7283 89.5263 55.7558 89.5263 56.7833C89.5263 57.8108 89.2223 58.8382 88.6143 59.7563L81.9995 69.7818C81.9448 69.8609 81.9083 69.9277 81.8901 69.9825C81.8597 70.0493 81.8415 70.1284 81.8232 70.2135L79.4156 81.9778C79.1968 83.0479 78.6861 83.9841 77.9626 84.7137L77.9565 84.7198C77.233 85.4433 76.2967 85.954 75.2206 86.1729L65.949 88.0697V113.641L73.5851 109.233H73.5912C80.6802 105.142 86.2493 99.5848 90.0492 93.0004H90.0552C93.8429 86.4343 95.8675 78.8285 95.8675 70.6269V16.8149L95.8371 16.821ZM50.0078 43.4017L54.2272 52.3815L64.0764 53.6218L56.8354 60.4129L58.7019 70.1588L50.0078 65.374L41.3138 70.1588L43.1802 60.4129L35.9392 53.6218L45.7885 52.3815L50.0078 43.4017ZM50.0078 31.2908C57.0482 31.2908 63.4198 34.1422 68.0343 38.7568C72.6489 43.3713 75.5003 49.7429 75.5003 56.7833C75.5003 63.8236 72.6489 70.1952 68.0343 74.8098C63.4198 79.4243 57.0482 82.2757 50.0078 82.2757C42.9674 82.2757 36.5959 79.4243 31.9813 74.8098C27.3668 70.1952 24.5154 63.8236 24.5154 56.7833C24.5154 49.7429 27.3668 43.3713 31.9813 38.7568C36.5959 34.1422 42.9674 31.2908 50.0078 31.2908ZM65.0856 41.7055C61.225 37.8448 55.8991 35.4615 50.0078 35.4615C44.1226 35.4615 38.7906 37.8509 34.93 41.7055C31.0693 45.5661 28.6861 50.892 28.6861 56.7833C28.6861 62.6685 31.0754 68.0005 34.93 71.8611C38.7906 75.7217 44.1165 78.105 50.0078 78.105C55.8991 78.105 61.225 75.7157 65.0856 71.8611C68.9463 68.0005 71.3296 62.6746 71.3296 56.7833C71.3296 50.892 68.9402 45.5661 65.0856 41.7055ZM38.2617 89.5775V117.277L50.0078 107.951L61.7539 117.277V89.5775L52.9747 95.3715C52.0567 95.9795 51.0292 96.2835 50.0017 96.2835C48.9742 96.2835 47.9468 95.9795 47.0287 95.3715L38.2495 89.5775H38.2617ZM60.7082 28.2753L50.6827 21.6605C50.4699 21.5206 50.2388 21.4538 50.0078 21.4538C49.7768 21.4538 49.5397 21.5206 49.333 21.6605L39.3074 28.2753C39.0156 28.4637 38.7177 28.6279 38.3955 28.7616C38.0854 28.8893 37.7632 28.9866 37.4166 29.0596L25.6523 31.4671C25.3969 31.5219 25.1841 31.6313 25.0261 31.7894L25.02 31.7954C24.8619 31.9535 24.7464 32.1663 24.6977 32.4217L22.2902 44.186C22.2172 44.5326 22.1199 44.8548 21.9922 45.1648C21.8646 45.4749 21.7065 45.7728 21.5059 46.0707V46.0768L14.8911 56.1023C14.7513 56.3151 14.6844 56.5462 14.6844 56.7772C14.6844 57.0082 14.7573 57.2393 14.8911 57.4521L21.5059 67.4776C21.7004 67.7694 21.8585 68.0673 21.9922 68.3896C22.1199 68.6996 22.2172 69.0219 22.2902 69.3684L24.6977 81.1327C24.7525 81.3881 24.8619 81.6009 25.02 81.7589L25.0261 81.765C25.1841 81.9231 25.3969 82.0386 25.6523 82.0873L37.4166 84.4948C37.7753 84.5678 38.0976 84.6651 38.4015 84.7928C38.7238 84.9265 39.0217 85.0846 39.3074 85.2731L49.333 91.8878C49.5458 92.0277 49.7768 92.0946 50.0078 92.0946C50.2388 92.0946 50.4699 92.0216 50.6827 91.8878L60.7082 85.2731C61 85.0785 61.2979 84.9204 61.6202 84.7867C61.9302 84.659 62.2525 84.5617 62.599 84.4888L74.3634 82.0812C74.6126 82.0325 74.8315 81.917 74.9957 81.7529C75.1598 81.5887 75.2753 81.3759 75.324 81.1206L77.7316 69.3562C77.8045 69.0097 77.8957 68.6875 78.0294 68.3774C78.1632 68.0552 78.3213 67.7512 78.5158 67.4654L85.1306 57.4399C85.2704 57.2271 85.3373 56.9961 85.3373 56.765C85.3373 56.534 85.2704 56.303 85.1306 56.0902L78.5158 46.0647V46.0586C78.3152 45.7607 78.1571 45.4628 78.0294 45.1527C77.9018 44.8426 77.8045 44.5204 77.7316 44.1738L75.324 32.4095C75.2753 32.1602 75.1598 31.9474 74.9896 31.7833C74.8254 31.6191 74.6126 31.5036 74.3634 31.4489L62.599 29.0413C62.2525 28.9684 61.9302 28.8711 61.6202 28.7434C61.2919 28.6096 60.994 28.4516 60.7082 28.257V28.2753ZM34.091 118.438L24.3755 112.827V112.82C16.636 108.352 10.544 102.272 6.39157 95.0797C2.22693 87.8691 0.0078125 79.5581 0.0078125 70.6269V13.623L49.4667 0.369141H50.5428L100.002 13.623V70.6269C100.002 79.552 97.7826 87.863 93.618 95.0736V95.0797C89.4655 102.272 83.3736 108.352 75.634 112.82V112.827L65.9186 118.438V125.892L60.4833 121.575L50.0017 127.625L39.5202 121.575L34.0849 125.892V118.438H34.091ZM56.9874 118.797L50.0078 113.258L43.0282 118.797L50.0078 122.828L56.9874 118.797Z" fill="white"/>
</svg>
