<svg width="100" height="128" viewBox="0 0 100 128" fill="none" xmlns="http://www.w3.org/2000/svg">
<path fill-rule="evenodd" clip-rule="evenodd" d="M50.538 0.37915L99.994 13.6322V70.6327C99.994 79.5572 97.775 87.8678 93.6106 95.0779V95.084C89.4584 102.276 83.3668 108.355 75.6277 112.824V112.83L49.997 127.627L24.3662 112.83V112.824C16.6272 108.355 10.5356 102.276 6.38337 95.084C2.21898 87.8738 0 79.5633 0 70.6327V13.6322L49.4559 0.37915H50.532L50.538 0.37915Z" fill="#FF7955"/>
<path d="M95.8313 16.8239L50.0048 4.54351L4.17827 16.8239V70.6326C4.17827 78.8277 6.20271 86.433 9.99017 92.9987C13.7898 99.5767 19.3585 105.133 26.4471 109.231H26.4532L49.9987 122.824L73.5442 109.231H73.5503C80.6389 105.139 86.2076 99.5827 90.0072 92.9987H90.0133C93.8008 86.433 95.8252 78.8277 95.8252 70.6266V16.8178L95.8313 16.8239ZM52.084 50.0356C52.084 52.6133 51.0322 54.9539 49.3361 56.65C47.6399 58.3462 45.2993 59.3979 42.7217 59.3979V55.2335C44.1503 55.2335 45.4513 54.6499 46.3936 53.7076C47.3359 52.7653 47.9195 51.4643 47.9195 50.0356H47.9256L47.9499 30.0587L47.8952 29.4143C47.7737 27.9796 47.1049 26.6908 46.0957 25.7667C45.0987 24.8487 43.7673 24.2894 42.3144 24.2894C40.8553 24.2894 39.53 24.8487 38.533 25.7667C37.5238 26.6908 36.8551 27.9796 36.7335 29.4143L36.5754 31.3293H29.4442C27.1584 31.3293 25.0853 32.2656 23.5777 33.7733C22.07 35.2809 21.1337 37.3601 21.1337 39.6399C21.1337 39.9682 21.1459 40.26 21.1763 40.5153C21.2067 40.801 21.2553 41.0928 21.3161 41.3847L21.5897 42.6553L20.5501 43.4577C19.547 44.2359 18.7202 45.239 18.1548 46.388C17.6138 47.4823 17.3098 48.7225 17.3098 50.0356C17.3098 50.6375 17.3706 51.2211 17.4861 51.7683C17.6077 52.3458 17.7901 52.899 18.0211 53.4158L18.5196 54.5222L17.7961 55.501C17.2794 56.2002 16.866 56.9844 16.5863 57.8416C16.3188 58.6562 16.1729 59.5256 16.1729 60.4375C16.1729 61.9269 16.562 63.3191 17.2429 64.5168C17.9542 65.7752 18.9877 66.8269 20.2218 67.5686L21.4134 68.286L21.2188 69.6478C21.1884 69.8423 21.1702 70.0369 21.158 70.2436C21.1459 70.4077 21.1398 70.6083 21.1398 70.8393C21.1398 72.3835 21.5653 73.8304 22.301 75.0645C23.067 76.3473 24.1674 77.4173 25.4866 78.1346L26.7268 78.8155L26.5565 80.2138C26.5322 80.4205 26.514 80.5907 26.5079 80.7184C26.5018 80.8399 26.4958 81.0102 26.4958 81.2351C26.4958 83.521 27.432 85.6001 28.9397 87.1017C30.4474 88.6094 32.5265 89.5456 34.8063 89.5456H41.8766V92.2874C41.8766 93.1203 42.2171 93.8742 42.7703 94.4274C43.3175 94.9745 44.0774 95.3211 44.9102 95.3211C45.7431 95.3211 46.497 94.9806 47.0502 94.4274C47.5973 93.8802 47.9439 93.1203 47.9439 92.2874H47.9256L47.956 71.9336H52.1083L52.1386 92.2874H52.1204C52.1204 93.1203 52.4609 93.8742 53.0141 94.4274C53.5612 94.9745 54.3212 95.3211 55.154 95.3211C55.9869 95.3211 56.7407 94.9806 57.294 94.4274C57.8411 93.8802 58.1877 93.1203 58.1877 92.2874V89.5456H65.258C67.5439 89.5456 69.6169 88.6094 71.1246 87.1017C72.6323 85.594 73.5685 83.5149 73.5685 81.2351C73.5685 81.0102 73.5624 80.8399 73.5564 80.7184C73.5503 80.5907 73.5321 80.4205 73.5077 80.2138L73.3375 78.8155L74.5777 78.1346C75.897 77.4112 76.9973 76.3473 77.7633 75.0645C78.4989 73.8243 78.9245 72.3835 78.9245 70.8393C78.9245 70.6083 78.9184 70.4138 78.9063 70.2436C78.8941 70.0429 78.8698 69.8423 78.8454 69.6478L78.6509 68.286L79.8425 67.5686C81.0766 66.8269 82.104 65.7752 82.8214 64.5168C83.5023 63.3191 83.8913 61.9209 83.8913 60.4375C83.8913 59.5317 83.7454 58.6562 83.4779 57.8416C83.1922 56.9844 82.7849 56.2002 82.2681 55.501L81.5447 54.5222L82.0432 53.4158C82.2742 52.899 82.4566 52.3458 82.5782 51.7683C82.6937 51.2211 82.7545 50.6436 82.7545 50.0356C82.7545 48.7225 82.4505 47.4823 81.9095 46.388C81.3441 45.239 80.5173 44.2359 79.5142 43.4577L78.4746 42.6553L78.7482 41.3847C78.809 41.0928 78.8576 40.801 78.888 40.5153C78.9123 40.26 78.9306 39.9682 78.9306 39.6399C78.9306 37.354 77.9943 35.2749 76.4866 33.7733C74.9789 32.2656 72.8998 31.3293 70.62 31.3293H63.4889L63.3308 29.4143C63.2093 27.9796 62.5405 26.6908 61.5313 25.7667C60.5343 24.8487 59.2029 24.2894 57.7499 24.2894C56.2909 24.2894 54.9656 24.8487 53.9686 25.7667C52.9594 26.6908 52.2906 27.9796 52.169 29.4143L52.1447 50.0296H52.1508L52.084 50.0356ZM47.9195 71.9215C47.9195 69.3438 48.9713 67.0032 50.6674 65.3071C52.3636 63.6109 54.7042 62.5592 57.2818 62.5592V66.7236C55.8532 66.7236 54.5522 67.3072 53.6099 68.2495C52.6675 69.1918 52.084 70.4928 52.084 71.9215H47.9195ZM32.8305 65.2341C34.4476 63.617 35.2501 61.4892 35.2501 59.3554C35.2501 57.6896 34.7576 56.0238 33.7728 54.6073C31.183 56.2488 28.1129 57.2033 24.8361 57.2033V53.0389C28.3013 53.0389 31.4565 51.6163 33.7424 49.3304C36.0282 47.0446 37.4508 43.8894 37.4508 40.4241H41.6152C41.6152 44.8864 39.8522 48.9535 36.9949 51.9628C38.6059 54.1514 39.4145 56.7595 39.4145 59.3614C39.4145 62.5592 38.1986 65.757 35.7729 68.1826L32.8244 65.2341H32.8305ZM39.5847 81.7275C39.5847 80.3475 39.0193 79.0891 38.1074 78.1772C37.1955 77.2653 35.9371 76.6999 34.557 76.6999V72.5355C37.0861 72.5355 39.3841 73.569 41.0498 75.2347C42.7156 76.9005 43.7491 79.1985 43.7491 81.7275H39.5847ZM64.2306 68.1766C61.8049 65.7509 60.589 62.547 60.589 59.3554C60.589 56.7534 61.3976 54.1453 63.0086 51.9567C60.1513 48.9474 58.3883 44.8742 58.3883 40.418H62.5527C62.5527 43.8894 63.9752 47.0385 66.2611 49.3304C68.5469 51.6163 71.7022 53.0389 75.1674 53.0389V57.2033C71.8906 57.2033 68.8205 56.2488 66.2307 54.6073C65.2458 56.0238 64.7534 57.6896 64.7534 59.3554C64.7534 61.4892 65.562 63.617 67.173 65.2341L64.2245 68.1826L64.2306 68.1766ZM56.2605 81.7275C56.2605 79.1985 57.294 76.9005 58.9598 75.2347C60.6255 73.569 62.9235 72.5355 65.4525 72.5355V76.6999C64.0725 76.6999 62.8141 77.2653 61.9022 78.1772C60.9902 79.0891 60.4249 80.3475 60.4249 81.7275H56.2605ZM16.9815 70.3712C15.6258 69.3438 14.4828 68.0428 13.6378 66.5594C12.6043 64.7417 12.0085 62.6443 12.0085 60.4253C12.0085 59.0696 12.2274 57.7565 12.6347 56.5284C12.9265 55.6409 13.3217 54.7958 13.802 53.9994C13.65 53.5495 13.5223 53.0875 13.419 52.6194C13.2366 51.7744 13.1454 50.905 13.1454 50.0296C13.1454 48.072 13.6074 46.2117 14.4282 44.5459C15.0847 43.2146 15.9784 42.0108 17.0484 40.9956L17.0423 40.9409C16.9937 40.4788 16.9693 40.0411 16.9693 39.6338C16.9693 36.1989 18.3737 33.0802 20.6352 30.8187C22.8967 28.5571 26.0155 27.1528 29.4503 27.1528H32.946C33.4506 25.4202 34.4294 23.8882 35.7243 22.6966C37.4691 21.0916 39.7853 20.1128 42.3265 20.1128C44.8616 20.1128 47.184 21.0977 48.9287 22.6966C49.3239 23.0553 49.6826 23.4504 50.0169 23.8699C50.3452 23.4504 50.71 23.0553 51.1051 22.6966C52.8499 21.0916 55.1662 20.1128 57.7074 20.1128C60.2425 20.1128 62.5648 21.0977 64.3096 22.6966C65.6045 23.8882 66.5772 25.4202 67.0879 27.1528H70.5836C74.0184 27.1528 77.1371 28.5571 79.3987 30.8187C81.6602 33.0802 83.0645 36.1989 83.0645 39.6338C83.0645 40.0411 83.0402 40.4788 82.9916 40.9409L82.9855 40.9956C84.0555 42.0108 84.9431 43.2146 85.6057 44.5459C86.4264 46.2117 86.8885 48.072 86.8885 50.0296C86.8885 50.905 86.7912 51.7744 86.6149 52.6255C86.5177 53.0936 86.39 53.5556 86.2319 54.0055C86.7122 54.8019 87.1073 55.6469 87.3992 56.5345C87.8065 57.7626 88.0254 59.0757 88.0254 60.4314C88.0254 62.6504 87.4357 64.7417 86.3961 66.5655C85.551 68.0489 84.4081 69.3499 83.0524 70.3773C83.0585 70.5354 83.0645 70.6874 83.0645 70.8272C83.0645 73.1374 82.4262 75.3077 81.3198 77.168C80.4079 78.7061 79.1737 80.0314 77.7147 81.0466V81.2169C77.7147 84.6517 76.3103 87.7705 74.0488 90.032C71.7872 92.2935 68.6685 93.6979 65.2337 93.6979H62.1879C61.9022 95.1083 61.203 96.3728 60.2182 97.3516C58.9172 98.6526 57.1116 99.4672 55.1358 99.4672C53.1539 99.4672 51.3544 98.6587 50.0534 97.3516L50.023 97.3212L49.9926 97.3516C48.6917 98.6526 46.886 99.4672 44.9102 99.4672C42.9284 99.4672 41.1289 98.6587 39.8279 97.3516C38.843 96.3667 38.1439 95.1083 37.8582 93.6979H34.8124C31.3775 93.6979 28.2588 92.2935 25.9972 90.032C23.7357 87.7705 22.3314 84.6517 22.3314 81.2169V81.0466C20.8723 80.0253 19.6443 78.7 18.7263 77.168C17.6198 75.3016 16.9815 73.1374 16.9815 70.8272C16.9815 70.6813 16.9876 70.5354 16.9937 70.3773L16.9815 70.3712ZM50.5458 0.373047L100.002 13.6261V70.6266C100.002 79.5511 97.7828 87.8616 93.6184 95.0718V95.0779C89.4661 102.27 83.3746 108.349 75.6355 112.818V112.824L50.0048 127.621L24.3741 112.824V112.818C16.635 108.349 10.5434 102.27 6.39118 95.0779C2.22679 87.8677 0.0078125 79.5572 0.0078125 70.6266V13.6261L49.4637 0.373047H50.5398H50.5458Z" fill="white"/>
</svg>
