<svg width="100" height="128" viewBox="0 0 100 128" fill="none" xmlns="http://www.w3.org/2000/svg">
<path fill-rule="evenodd" clip-rule="evenodd" d="M50.5411 0.372314L100 13.6262V70.6301C100 79.5552 97.7809 87.8662 93.6162 95.0768V95.0829C89.4638 102.275 83.3718 108.355 75.6323 112.824V112.83L50 127.628L24.3677 112.83V112.824C16.6282 108.355 10.5362 102.275 6.38375 95.0829C2.21911 87.8723 0 79.5613 0 70.6301V13.6262L49.4589 0.372314H50.535L50.5411 0.372314Z" fill="#FF7955"/>
<path d="M95.8353 16.8181L50.0061 4.53695L4.1768 16.8181V70.6301C4.1768 78.8256 6.20136 86.4314 9.98905 92.9975C13.7889 99.5759 19.358 105.133 26.447 109.231H26.4531L50 122.825L73.5469 109.231H73.553C80.642 105.139 86.2111 99.5819 90.0109 92.9975H90.017C93.8047 86.4314 95.8293 78.8256 95.8293 70.624V16.812L95.8353 16.8181ZM32.8551 73.1897H67.151V77.3543H32.8551V73.1897ZM32.8551 64.7023H67.151V68.867H32.8551V64.7023ZM32.8551 56.215H67.151V60.3796H32.8551V56.215ZM32.8551 47.7276H67.151V51.8922H32.8551V47.7276ZM32.8551 39.2403H67.151V43.4049H32.8551V39.2403ZM41.2087 30.7529H58.7974V34.9175H41.2087V30.7529ZM24.4589 16.7694H77.6325V24.2111V91.3317V98.7733H22.3735V91.3317V24.2111V16.7694H24.4589ZM73.4679 91.3378H26.5443V94.6148H73.4679V91.3378ZM73.4679 20.9402H26.5443V87.1731H73.4679V20.9402ZM50.5411 0.372314L100 13.6262V70.6301C100 79.5552 97.7809 87.8662 93.6162 95.0768V95.0829C89.4638 102.275 83.3718 108.355 75.6323 112.824V112.83L50 127.628L24.3677 112.83V112.824C16.6282 108.355 10.5362 102.275 6.38375 95.0829C2.21911 87.8723 0 79.5613 0 70.6301V13.6262L49.4589 0.372314H50.535L50.5411 0.372314Z" fill="white"/>
</svg>
