<svg width="39" height="49" viewBox="0 0 39 49" fill="none" xmlns="http://www.w3.org/2000/svg">
<path d="M36.7861 6.31914L19.1887 1.6006L1.59135 6.31914V26.9789C1.59135 30.1246 2.36852 33.0483 3.82109 35.5648C5.28291 38.0906 7.42013 40.2279 10.1402 41.8007L19.1795 47.0188L28.2187 41.8007C30.9388 40.2279 33.076 38.0999 34.5379 35.5648C35.9904 33.0483 36.7676 30.1246 36.7676 26.9789V6.31914H36.7861ZM25.0915 14.0353L21.7793 24.3606H26.9419L13.2952 34.6859L16.6074 24.3606H11.4448L25.0915 14.0353ZM19.4015 0.00925204L38.396 5.09787V26.9882C38.396 30.4114 37.5448 33.6034 35.9442 36.3698C34.3528 39.1361 32.012 41.4676 29.0421 43.1793L19.198 48.86L9.35381 43.1793C6.3839 41.4584 4.04314 39.1269 2.45179 36.3698C0.851187 33.6034 0 30.4114 0 26.9789V5.08862L18.9944 0H19.4108L19.4015 0.00925204Z" fill="#D9D9D9"/>
</svg>
