<svg width="63" height="49" viewBox="0 0 63 49" fill="none" xmlns="http://www.w3.org/2000/svg">
<path d="M24.361 0C31.0879 0 37.1781 2.727 41.5867 7.1352C44.3828 9.9313 46.5018 13.4037 47.6782 17.286L51.6465 16.2229L53.1613 12.7299L60.7073 10.7078L58.7868 15.1367L62.6645 18.012L55.1181 20.0341L52.0599 17.7664L48.0912 18.8299C48.5041 20.6071 48.7219 22.4585 48.7219 24.3614C48.7219 31.0883 45.9949 37.1785 41.5867 41.5871C37.1781 45.9958 31.0879 48.7223 24.361 48.7223C17.6341 48.7223 11.5438 45.9953 7.13519 41.5871C2.72658 37.1785 0 31.0883 0 24.3614C0 17.6345 2.727 11.5442 7.13519 7.13562C11.5438 2.727 17.6341 0.000421122 24.361 0.000421122V0ZM24.1549 23.589L31.2227 21.6955C30.8494 20.7352 30.2805 19.8727 29.5651 19.1572C28.2336 17.8258 26.3936 17.002 24.3614 17.002C22.3292 17.002 20.4891 17.8258 19.1577 19.1572C17.8262 20.4887 17.0024 22.3288 17.0024 24.361C17.0024 26.3931 17.8262 28.2332 19.1577 29.5647C20.4896 30.8966 22.3292 31.7199 24.3614 31.7199C26.3936 31.7199 28.2336 30.8961 29.5651 29.5647C30.897 28.2328 31.7203 26.3931 31.7203 24.361C31.7203 23.9796 31.6912 23.6046 31.6352 23.2389L24.5674 25.1329L24.1549 23.589ZM32.7758 21.2792L39.445 19.4922C38.6651 17.0745 37.3205 14.9104 35.566 13.1559C32.6987 10.2886 28.7367 8.51471 24.361 8.51471C19.9852 8.51471 16.0232 10.2886 13.1559 13.1559C10.2886 16.0232 8.5147 19.9852 8.5147 24.361C8.5147 28.7367 10.2886 32.6987 13.1559 35.566C16.0232 38.4333 19.9852 40.2072 24.361 40.2072C28.7367 40.2072 32.6987 38.4333 35.566 35.566C38.4333 32.6987 40.2072 28.7367 40.2072 24.361C40.2072 23.2204 40.0863 22.108 39.8575 21.0356L33.1883 22.8226C33.2747 23.3223 33.3202 23.8364 33.3202 24.361C33.3202 26.8347 32.3174 29.0746 30.696 30.696C29.0746 32.3174 26.8347 33.3202 24.361 33.3202C21.8872 33.3202 19.6473 32.3174 18.0259 30.696C16.4045 29.0746 15.4017 26.8347 15.4017 24.361C15.4017 21.8872 16.4045 19.6473 18.0259 18.0259C19.6473 16.4045 21.8872 15.4017 24.361 15.4017C26.8347 15.4017 29.0746 16.4045 30.696 18.0259C31.6078 18.9373 32.3237 20.0446 32.7758 21.2792ZM40.9922 19.0776L46.131 17.7006C45.0288 14.0934 43.0551 10.8667 40.455 8.26653C36.3362 4.1478 30.6459 1.6003 24.3605 1.6003C18.0752 1.6003 12.3848 4.1478 8.2661 8.26653C4.14738 12.3853 1.59988 18.0756 1.59988 24.361C1.59988 30.6463 4.14738 36.3367 8.2661 40.4554C12.3848 44.5741 18.0752 47.1216 24.3605 47.1216C30.6459 47.1216 36.3362 44.5741 40.455 40.4554C44.5737 36.3367 47.1212 30.6463 47.1212 24.361C47.1212 22.6014 46.9215 20.889 46.5435 19.244L41.4047 20.621C41.668 21.8257 41.8067 23.0771 41.8067 24.361C41.8067 29.1783 39.8537 33.5401 36.6965 36.6973C33.5393 39.8545 29.1779 41.8075 24.3601 41.8075C19.5428 41.8075 15.1809 39.8545 12.0237 36.6973C8.86654 33.5401 6.91356 29.1787 6.91356 24.361C6.91356 19.5436 8.86654 15.1818 12.0237 12.0246C15.1809 8.86738 19.5424 6.91441 24.3601 6.91441C29.1774 6.91441 33.5393 8.86738 36.6965 12.0246C38.6465 13.9746 40.1368 16.3847 40.9918 19.0772L40.9922 19.0776Z" fill="#D9D9D9"/>
</svg>
