<svg width="67" height="49" viewBox="0 0 67 49" fill="none" xmlns="http://www.w3.org/2000/svg">
<path d="M17.3825 47.122C18.3815 47.122 19.2853 46.7171 19.9401 46.0628C20.5945 45.4084 20.9994 44.5042 20.9994 43.5051C20.9994 42.5061 20.5945 41.6023 19.9401 40.9475C19.2858 40.2932 18.3815 39.8882 17.3825 39.8882C16.3839 39.8882 15.4797 40.2932 14.8249 40.9475C14.1705 41.6019 13.7656 42.5061 13.7656 43.5051C13.7656 44.5037 14.1705 45.408 14.8249 46.0628C15.4793 46.7171 16.3835 47.122 17.3825 47.122ZM61.7021 20.7656C60.7035 20.7656 59.7993 21.1705 59.1445 21.8248C58.4902 22.4792 58.0852 23.3834 58.0852 24.3824C58.0852 25.3811 58.4902 26.2853 59.1445 26.9401C59.7989 27.5944 60.7031 27.9993 61.7021 27.9993C62.7012 27.9993 63.605 27.5944 64.2597 26.9401C64.9141 26.2857 65.319 25.3815 65.319 24.3824C65.319 23.3834 64.9141 22.4796 64.2597 21.8248C63.6054 21.1705 62.7012 20.7656 61.7021 20.7656ZM58.0136 20.6935C58.9574 19.7497 60.262 19.1653 61.7021 19.1653C63.1423 19.1653 64.4468 19.7492 65.3906 20.6935C66.3345 21.6373 66.9189 22.9418 66.9189 24.382C66.9189 25.8222 66.3349 27.1267 65.3906 28.0706C64.4468 29.0144 63.1423 29.5988 61.7021 29.5988C60.262 29.5988 58.9574 29.0148 58.0136 28.0706C57.248 27.305 56.7192 26.3021 56.5464 25.1818H41.5922V25.4261C41.5922 26.0026 41.5345 26.5638 41.4224 27.1052H50.3353V38.3495C51.4552 38.5218 52.4581 39.0506 53.2241 39.8166C54.1679 40.7604 54.7523 42.065 54.7523 43.5051C54.7523 44.9453 54.1683 46.2498 53.2241 47.1937C52.2802 48.1375 50.9758 48.7219 49.5356 48.7219C48.0954 48.7219 46.7909 48.1379 45.847 47.1937C44.9032 46.2498 44.3188 44.9453 44.3188 43.5051C44.3188 42.065 44.9028 40.7604 45.847 39.8166C46.6126 39.051 47.6154 38.5222 48.7358 38.3495V28.7055H40.9075C40.8005 28.9453 40.6808 29.1791 40.5498 29.4062V29.4092C39.8718 30.5835 38.8808 31.5733 37.6231 32.2997H37.6201L33.4593 34.7018L29.2988 32.2997H29.2959C28.0406 31.5749 27.05 30.5843 26.3704 29.4083L26.3691 29.4092C26.2373 29.1812 26.1176 28.9461 26.0101 28.7055H18.1831V38.3495C19.303 38.5218 20.3059 39.0506 21.0719 39.8166C22.0157 40.7604 22.6001 42.065 22.6001 43.5051C22.6001 44.9453 22.0161 46.2498 21.0719 47.1937C20.128 48.1375 18.8235 48.7219 17.3834 48.7219C15.9432 48.7219 14.6387 48.1379 13.6948 47.1937C12.751 46.2498 12.1666 44.9453 12.1666 43.5051C12.1666 42.065 12.7506 40.7604 13.6948 39.8166C14.4604 39.051 15.4632 38.5222 16.5836 38.3495V27.1052H25.4961C25.3844 26.5642 25.3267 26.003 25.3267 25.4261V25.1818H10.3724C10.2001 26.3017 9.67132 27.3045 8.9053 28.0706C7.96147 29.0144 6.65696 29.5988 5.21678 29.5988C3.77659 29.5988 2.47208 29.0148 1.52825 28.0706C0.584418 27.1267 0 25.8222 0 24.382C0 22.9418 0.583996 21.6373 1.52825 20.6935C2.47208 19.7497 3.77659 19.1653 5.21678 19.1653C6.65696 19.1653 7.96147 19.7492 8.9053 20.6935C9.6709 21.4591 10.1997 22.4619 10.3724 23.5823H25.3267V21.6167H16.5836V10.3725C15.4637 10.2001 14.4608 9.67132 13.6948 8.9053C12.751 7.96147 12.1666 6.65696 12.1666 5.21677C12.1666 3.77659 12.7506 2.47208 13.6948 1.52825C14.6387 0.584417 15.9432 0 17.3834 0C18.8235 0 20.128 0.583996 21.0719 1.52825C22.0157 2.47208 22.6001 3.77659 22.6001 5.21677C22.6001 6.65696 22.0161 7.96147 21.0719 8.9053C20.3063 9.6709 19.3035 10.1997 18.1831 10.3725V20.0164H25.3263V16.3338L33.2532 14.2097H33.6657L41.5926 16.3338V20.0164H48.7358V10.3725C47.6159 10.2001 46.6131 9.67132 45.847 8.9053C44.9032 7.96147 44.3188 6.65696 44.3188 5.21677C44.3188 3.77659 44.9028 2.47208 45.847 1.52825C46.7909 0.584417 48.0954 0 49.5356 0C50.9758 0 52.2802 0.583996 53.2241 1.52825C54.1679 2.47208 54.7523 3.77659 54.7523 5.21677C54.7523 6.65696 54.1683 7.96147 53.2241 8.9053C52.4585 9.6709 51.4557 10.1997 50.3353 10.3725V21.6167H41.5922V23.5823H56.5464C56.7188 22.4623 57.2476 21.4595 58.0136 20.6935ZM7.77312 21.8248C7.11876 21.1705 6.21455 20.7656 5.21552 20.7656C4.21691 20.7656 3.31268 21.1705 2.6579 21.8248C2.00354 22.4792 1.59861 23.3834 1.59861 24.3824C1.59861 25.3811 2.00354 26.2853 2.6579 26.9401C3.31226 27.5944 4.21649 27.9993 5.21552 27.9993C6.21455 27.9993 7.11834 27.5944 7.77312 26.9401C8.42749 26.2857 8.83241 25.3815 8.83241 24.3824C8.83241 23.3834 8.42749 22.4796 7.77312 21.8248ZM46.9779 46.0632C47.6323 46.7175 48.5365 47.1225 49.5356 47.1225C50.5346 47.1225 51.4384 46.7175 52.0932 46.0632C52.7475 45.4088 53.1525 44.5046 53.1525 43.5056C53.1525 42.5065 52.7475 41.6027 52.0932 40.948C51.4388 40.2936 50.5346 39.8887 49.5356 39.8887C48.537 39.8887 47.6327 40.2936 46.9779 40.948C46.3236 41.6023 45.9187 42.5065 45.9187 43.5056C45.9187 44.5042 46.3236 45.4084 46.9779 46.0632ZM49.5356 1.6003C48.537 1.6003 47.6327 2.00522 46.9779 2.65958C46.3236 3.31394 45.9187 4.21817 45.9187 5.2172C45.9187 6.2158 46.3236 7.12003 46.9779 7.77481C47.6323 8.42917 48.5365 8.83409 49.5356 8.83409C50.5346 8.83409 51.4384 8.42917 52.0932 7.77481C52.7475 7.12045 53.1525 6.21622 53.1525 5.2172C53.1525 4.21817 52.7475 3.31436 52.0932 2.65958C51.4388 2.00522 50.5346 1.6003 49.5356 1.6003ZM19.9401 2.65958C19.2858 2.00522 18.3815 1.6003 17.3825 1.6003C16.3839 1.6003 15.4797 2.00522 14.8249 2.65958C14.1705 3.31394 13.7656 4.21817 13.7656 5.2172C13.7656 6.2158 14.1705 7.12003 14.8249 7.77481C15.4793 8.42917 16.3835 8.83409 17.3825 8.83409C18.3815 8.83409 19.2853 8.42917 19.9401 7.77481C20.5945 7.12045 20.9994 6.21622 20.9994 5.2172C20.9994 4.21817 20.5945 3.31436 19.9401 2.65958Z" fill="#D9D9D9"/>
</svg>
