<svg width="36" height="54" viewBox="0 0 36 54" fill="none" xmlns="http://www.w3.org/2000/svg">
<path d="M6.37255 35.909H34.4086V1.59988H6.37255C5.06087 1.59988 3.86802 2.1371 3.00256 3.00256C2.13753 3.8676 1.6003 5.06087 1.6003 6.37255V38.0688L1.60452 38.0642L1.61294 38.0549L1.61716 38.0503L1.62137 38.0457L1.62558 38.041L1.6298 38.0364L1.63401 38.0318L1.63823 38.0271L1.64243 38.0225L1.64665 38.0179L1.65087 38.0132L1.65508 38.0086L1.65929 38.004L1.6614 38.0014L1.6635 37.9993L1.66772 37.9947L1.67194 37.99L1.67614 37.9854L1.68036 37.9808L1.68457 37.9761L1.68879 37.9715L1.70143 37.9576L1.70564 37.953L1.70985 37.9483L1.71365 37.9441L1.71407 37.9437L1.71828 37.9391L1.7225 37.9344L1.7267 37.9298L1.73092 37.9252L1.74357 37.9117L1.74777 37.907L1.75199 37.9024L1.75621 37.8978L1.76042 37.8931L1.76463 37.8885L1.7659 37.8872L1.76926 37.8839L1.77348 37.8792L1.7777 37.8746L1.80339 37.8481L1.80761 37.8434L1.81182 37.8388L1.81604 37.8341L1.81899 37.8312L1.82068 37.8295L1.82488 37.8249L1.86407 37.7853L1.86871 37.7806L1.87292 37.7764L1.92727 37.7225L1.98247 37.6694L2.03809 37.6172L2.09456 37.5653L2.15143 37.5139L2.20916 37.4634L2.2673 37.4136L2.32588 37.3643L2.38529 37.3159L2.44511 37.2683L2.5058 37.2211L2.56689 37.1747L2.62841 37.1292L2.69077 37.0841L2.75355 37.0399L2.81675 36.9965L2.8808 36.9539L2.94527 36.9118L3.01016 36.8705L3.07546 36.8301L3.14161 36.7905L3.20819 36.7517L3.27518 36.7138L3.3426 36.6767L3.41044 36.6405L3.47912 36.6046L3.5478 36.5697L3.61732 36.5355L3.68726 36.5023L3.75764 36.4698L3.82842 36.4382L3.89963 36.4074L3.97125 36.3775L4.04331 36.3485L4.11579 36.3202L4.18868 36.2928L4.26199 36.2663L4.33573 36.2406L4.40989 36.2157L4.48447 36.1921L4.55947 36.1694L4.63489 36.1475L4.71073 36.1264L4.787 36.1062L4.86327 36.0868L4.93995 36.0683L5.01706 36.051L5.09459 36.0345L5.17253 36.019L5.25049 36.0042L5.32886 35.9907L5.40765 35.9781L5.48687 35.9663L5.56608 35.9558L5.64571 35.9461L5.72578 35.9372L5.80583 35.9296L5.88631 35.9229L5.96721 35.917L6.04811 35.9124L6.12944 35.9086L6.21118 35.906L6.29292 35.9044L6.37508 35.9039L6.37255 35.909ZM20.7251 15.5745V12.8538C20.7251 12.1063 20.4188 11.4263 19.9254 10.9329C19.432 10.4394 18.7519 10.1331 18.0044 10.1331C17.2569 10.1331 16.5769 10.4394 16.0835 10.9329C15.5901 11.4263 15.2837 12.1063 15.2837 12.8538V15.5745H20.7255H20.7251ZM13.6834 15.5745V12.8538C13.6834 11.6647 14.1693 10.5844 14.9521 9.80152C15.735 9.01907 16.8154 8.53282 18.0044 8.53282C19.1935 8.53282 20.2738 9.01865 21.0567 9.80152C21.8392 10.5844 22.3254 11.6647 22.3254 12.8538V15.5745H24.8464V29.2579H11.1629V15.5745H11.9631H13.6839H13.6834ZM9.14885 42.2815H12.9297H16.7105V47.0542H34.4086V37.5093H6.37255L6.31103 37.5097L6.24994 37.511L6.18884 37.5127L6.12817 37.5156L6.06749 37.519L6.00681 37.5232L5.94656 37.5282L5.88674 37.5341L5.8269 37.5405L5.76707 37.5476L5.70766 37.5556L5.64866 37.5645L5.58968 37.5737L5.53111 37.5839L5.47254 37.5948L5.41439 37.6062L5.35667 37.6184L5.29894 37.6315L5.24164 37.6454L5.18433 37.6597L5.12746 37.6749L5.07099 37.6905L5.01453 37.7069L4.95849 37.7242L4.90287 37.7419L4.84725 37.7604L4.79205 37.7794L4.73728 37.7992L4.6825 37.8194L4.62815 37.8405L4.57421 37.8624L4.5207 37.8847L4.46761 37.9075L4.41452 37.9311L4.36185 37.9555L4.3096 37.9804L4.25778 38.0061L4.20637 38.0322L4.15497 38.0587L4.10399 38.0861L4.05343 38.1139L4.00328 38.1426L3.95356 38.1717L3.90427 38.2011L3.85538 38.2315L3.80693 38.2622L3.7589 38.2934L3.71128 38.3255L3.66368 38.3579L3.6169 38.3908L3.57013 38.4245L3.5242 38.4586L3.47827 38.4931L3.43277 38.5285L3.38769 38.5644L3.34302 38.6006L3.2992 38.6373L3.2558 38.6747L3.21282 38.7127L3.17026 38.751L3.12813 38.7898L3.08641 38.8294L3.04512 38.869L3.00425 38.9094L2.9638 38.9503L2.9242 38.9916L2.88459 39.0333L2.84582 39.0755L2.80748 39.118L2.76955 39.161L2.73206 39.2044L2.69541 39.2486L2.65917 39.2933L2.62335 39.3384L2.58796 39.3839L2.55341 39.4298L2.51927 39.4762L2.48556 39.5229L2.45271 39.5701L2.42026 39.6177L2.38824 39.6653L2.35706 39.7134L2.3263 39.7618L2.29595 39.8107L2.26604 39.86L2.23697 39.9097L2.20832 39.9599L2.1805 40.0104L2.15312 40.0614L2.12658 40.1128L2.10045 40.1642L2.07474 40.2161L2.04989 40.2683L2.02545 40.321L2.00185 40.3741L1.97868 40.4272L1.95635 40.4807L1.93444 40.5346L1.91337 40.589L1.89315 40.6433L1.87335 40.6981L1.85395 40.7533L1.83542 40.8089L1.81772 40.8645L1.80044 40.9206L1.78401 40.9766L1.76801 41.0331L1.75283 41.0899L1.7385 41.1468L1.72461 41.2041L1.71154 41.2619L1.69932 41.3196L1.68752 41.3777L1.67657 41.4359L1.66645 41.4944L1.65719 41.553L1.64834 41.612L1.64034 41.6714L1.63317 41.7308L1.62685 41.7907L1.62096 41.8505L1.61589 41.9107L1.61168 41.971L1.60831 42.0317L1.60536 42.0923L1.60367 42.1534L1.60241 42.2145L1.60199 42.2761C1.60199 43.5877 2.13921 44.7806 3.00467 45.646C3.86971 46.5111 5.06298 47.0487 6.37466 47.0487H9.15096V42.2761L9.14885 42.2815ZM16.7105 48.6541V53.5961L12.9297 50.5948L9.14885 53.5961V48.6541H6.37255C4.6193 48.6541 3.02617 47.9374 1.87124 46.7829C0.716729 45.6283 0 44.0348 0 42.2815V6.37255C0 4.6193 0.716729 3.02574 1.87124 1.87123C3.02574 0.716722 4.6193 0 6.37255 0H36.0089V35.909V37.5089V48.6537H16.7105V48.6541Z" fill="#D9D9D9"/>
</svg>
