<svg width="100" height="100" viewBox="0 0 100 100" fill="none" xmlns="http://www.w3.org/2000/svg">
<path d="M16.8615 48.3584H26.7002L37.3899 13.4558H40.5202L61.0485 80.4861L70.8872 48.3584H83.1421V51.6433H73.3034L62.6155 86.546H59.4851L38.9568 19.5157L29.1181 51.6433H16.865V48.3584H16.8615ZM50 0C63.8058 0 76.3076 5.59622 85.3557 14.6443C94.4038 23.6924 100 36.1924 100 50C100 63.8058 94.4038 76.3076 85.3557 85.3557C76.3076 94.4038 63.8076 100 50 100C36.1942 100 23.6942 94.4038 14.6443 85.3557C5.59622 76.3076 0 63.8076 0 50C0 36.1942 5.59622 23.6942 14.6443 14.6443C23.6924 5.59622 36.1924 0 50 0ZM83.0337 16.9663C74.5807 8.51336 62.9015 3.28311 50 3.28311C37.1003 3.28311 25.4211 8.51158 16.9663 16.9663C8.51337 25.4193 3.28312 37.0985 3.28312 50C3.28312 62.8997 8.51159 74.5789 16.9663 83.0337C25.4193 91.4866 37.0985 96.7169 50 96.7169C62.8997 96.7169 74.579 91.4884 83.0337 83.0337C91.4866 74.5807 96.7169 62.9015 96.7169 50C96.7169 37.1003 91.4884 25.421 83.0337 16.9663ZM70.9956 35.1816H64.2179V41.9592H60.9331V35.1816H54.1554V31.8967H60.9331V25.119H64.2179V31.8967H70.9956V35.1816Z" fill="#FF6F0F"/>
</svg>
