<svg width="100" height="125" viewBox="0 0 100 125" fill="none" xmlns="http://www.w3.org/2000/svg">
<path d="M7.02867 32.2321H22.6476V24.3085C22.6476 17.6217 25.7234 11.5435 30.6806 7.13975C35.6354 2.73598 42.4742 0 49.9975 0C57.5209 0 64.3596 2.73376 69.3169 7.13975C74.2716 11.5435 77.35 17.6217 77.35 24.3085V32.2321H95.1677C96.7818 63.154 98.3934 94.0781 100 125H0L4.83236 32.2321H7.03117H7.02867ZM5.54694 106.952H94.4481L90.7701 36.3361H77.3475V48.6169H62.0509V44.5107H72.7275V36.3361H27.2625V44.5107H37.9417V48.6169H22.6451V36.3361H9.22491L5.54694 106.952ZM94.663 111.058H5.33459L4.82236 120.896H95.1776L94.6655 111.058H94.663ZM27.265 32.2321H72.73V24.3085C72.73 18.7543 70.1714 13.7043 66.0512 10.0401C61.931 6.37803 56.2466 4.10397 49.9975 4.10397C43.7485 4.10397 38.0641 6.37803 33.9439 10.0401C29.8236 13.7021 27.265 18.7543 27.265 24.3085V32.2321Z" fill="#FF6F0F"/>
</svg>
