<svg width="100" height="75" viewBox="0 0 100 75" fill="none" xmlns="http://www.w3.org/2000/svg">
<path fill-rule="evenodd" clip-rule="evenodd" d="M66.9884 54.9499V62.9355H93.9548V54.9499H66.9884ZM17.3606 44.4608H9.43278C6.83843 44.4608 4.47917 43.1401 2.77064 41.0119C1.06211 38.8851 0 35.9483 0 32.7188C0 29.4893 1.061 26.5524 2.76952 24.4256C4.47914 22.2988 6.83737 20.9781 9.43172 20.9781H17.3606C17.0602 20.6855 16.7751 20.3698 16.5052 20.0339C14.7967 17.9071 13.7346 14.9702 13.7346 11.7407C13.7346 8.51124 14.7956 5.57437 16.5041 3.44758C18.2137 1.32078 20.572 0 23.1663 0H51.3538H95.9648H100V2.50474H95.9648V20.9794H100V23.4842H95.9648H86.2643H82.2291V41.9588H86.2643H95.9648H100V44.4636H95.9648V62.9382H100V65.443H95.9648H66.9862V75L61.2686 69.3498L55.5511 75V65.443H51.3526H23.1652C20.5709 65.443 18.2116 64.1222 16.5031 61.994C14.7945 59.8672 13.7324 56.9304 13.7324 53.7009C13.7324 50.4714 14.7934 47.5345 16.5019 45.4077C16.7718 45.0718 17.057 44.7575 17.3573 44.4636L17.3606 44.4608ZM23.1685 23.4814H9.43278C7.39343 23.4814 5.538 24.5218 4.19294 26.1962C2.84789 27.8705 2.01212 30.1802 2.01212 32.7188C2.01212 35.2574 2.84789 37.5671 4.19294 39.2414C5.538 40.9157 7.39343 41.9561 9.43278 41.9561H23.1685H31.8134L31.8058 41.948L31.7177 41.8599L31.6295 41.7705L31.5424 41.6798L31.4564 41.5876L31.3716 41.4942L31.2878 41.3993L31.204 41.3045L31.1213 41.2083L31.0397 41.1108L30.9591 41.0119L30.8797 40.9117L30.8013 40.8101L30.7241 40.7071L30.6468 40.6028L30.5707 40.4985L30.4956 40.3928L30.4216 40.2858L30.3487 40.1775L30.2768 40.0677L30.2061 39.958L30.1364 39.8469L30.0679 39.7345L30.0004 39.6207L29.934 39.5056L29.8687 39.3904L29.8045 39.2739L29.7414 39.1561L29.6794 39.0368L29.6185 38.9176L29.5586 38.7971L29.4998 38.6752L29.4422 38.5532L29.3856 38.43L29.3301 38.3053L29.2757 38.1807L29.2223 38.0547L29.1712 37.9274L29.1211 37.8001L29.0722 37.6714L29.0243 37.5413L28.9775 37.4113L28.9318 37.2799L28.8871 37.1485L28.8436 37.0157L28.8023 36.8816L28.762 36.7475L28.7228 36.612L28.6847 36.4766L28.6478 36.3397L28.6129 36.2029L28.5792 36.0648L28.5465 35.9266L28.515 35.787L28.4845 35.6475L28.4562 35.5066L28.429 35.3658L28.4029 35.2235L28.3789 35.0813L28.3561 34.9377L28.3343 34.7941L28.3136 34.6491L28.2952 34.5042L28.2777 34.3579L28.2614 34.2116L28.2473 34.0653L28.2342 33.9176L28.2233 33.77L28.2135 33.6223L28.2048 33.4733L28.1983 33.3243L28.1929 33.1739L28.1885 33.0236L28.1863 32.8732L28.1853 32.7215C28.1853 29.492 29.2463 26.5551 30.9548 24.4283C31.2247 24.0924 31.5098 23.7781 31.8101 23.4842H23.1652L23.1685 23.4814ZM46.9246 61.0932C46.9964 61.1596 47.0683 61.2246 47.1423 61.2883L47.2163 61.3506L47.2903 61.4129C47.3403 61.4535 47.3904 61.4942 47.4405 61.5335C47.4916 61.5727 47.5416 61.612 47.5939 61.65C47.645 61.6879 47.6973 61.7245 47.7495 61.761L47.8279 61.8152C47.8801 61.8504 47.9334 61.8857 47.9868 61.9195L48.0673 61.9697L48.1478 62.0184L48.2294 62.0672L48.3111 62.1146L48.3937 62.1607L48.4765 62.2054L48.5603 62.2487L48.6441 62.2907L48.7289 62.3313L48.8138 62.3706L48.8987 62.4086L48.9847 62.4451L49.0706 62.4817L49.1577 62.5156L49.2448 62.5494L49.3318 62.582L49.42 62.6131L49.5081 62.6429L49.5973 62.6714L49.6866 62.6985L49.7758 62.7242L49.8661 62.7486L49.9564 62.7716L50.0479 62.7933L50.1393 62.8136L50.2307 62.8312L50.3221 62.8488L50.4146 62.8637L50.5071 62.8773L50.5996 62.8895L50.6932 62.9003L50.7868 62.9098L50.8804 62.9179L50.9751 62.9247L51.0697 62.9301L51.1644 62.9342L51.2591 62.9369L51.3548 62.9382H55.5532V54.9526H51.3548V52.4478H93.9538V44.4622H86.2643H82.2291H51.3538C49.3144 44.4622 47.459 45.5026 46.1139 47.1769C44.7689 48.8513 43.9331 51.1609 43.9331 53.6995L43.9342 53.8187L43.9363 53.9366L43.9396 54.0545L43.9439 54.1723L43.9494 54.2902L43.9559 54.4067L43.9635 54.5232L43.9723 54.6397L43.982 54.7548L43.9929 54.87L44.0049 54.9851L44.0191 55.1002L44.0332 55.214L44.0495 55.3278L44.0669 55.4416L44.0854 55.554L44.105 55.6665L44.1257 55.7776L44.1474 55.8886L44.1703 55.9997L44.1943 56.1095L44.2193 56.2192L44.2454 56.3289L44.2726 56.4373L44.2998 56.5457L44.3292 56.6527L44.3586 56.7597L44.3891 56.8653L44.4206 56.971L44.4532 57.0767L44.487 57.181L44.5218 57.2853L44.5577 57.3882L44.5947 57.4912L44.6328 57.5928L44.672 57.6944L44.7112 57.7946L44.7514 57.8949L44.7928 57.9938L44.8352 58.0927L44.8788 58.1902L44.9233 58.2877L44.9691 58.3839L45.0148 58.4801L45.0616 58.5749L45.1095 58.6684L45.1584 58.7619L45.2085 58.854L45.2596 58.9461L45.3108 59.0368L46.9257 61.0946L46.9246 61.0932ZM37.6213 44.4608H23.1696C21.1302 44.4608 19.2748 45.5012 17.9297 47.1756C16.5847 48.8499 15.7489 51.1596 15.7489 53.6982C15.7489 56.2368 16.5847 58.5465 17.9297 60.2208C19.2748 61.8951 21.1302 62.9355 23.1696 62.9355H45.5502L45.5361 62.922L45.5219 62.9084L45.5077 62.8949L45.4936 62.8813L45.4795 62.8678L45.4653 62.8542L45.4523 62.842L45.4511 62.8407L45.437 62.8271L45.4229 62.8136L45.4087 62.8001L45.3946 62.7865L45.3804 62.773L45.3663 62.7594L45.363 62.7554L45.3532 62.7445L45.3391 62.731L45.325 62.7161L45.3108 62.7025L45.2966 62.6876L45.2825 62.6727L45.2738 62.6646L45.2684 62.6592L45.2553 62.6443L45.2412 62.6294L45.2281 62.6145L45.215 62.5996L45.2019 62.5847L45.1769 62.5576L45.1747 62.5549L45.1617 62.54L45.1486 62.5251L45.1356 62.5102L45.1225 62.4953L45.1095 62.4804L45.0964 62.4655L45.0833 62.4506L45.0703 62.4357L45.0572 62.4207L45.0442 62.4059L45.0311 62.3909L45.0224 62.3815L45.018 62.3761L45.005 62.3611L44.9919 62.3462L44.9789 62.3313L44.9658 62.3164L44.9527 62.3015L44.9397 62.2866L44.9266 62.2717L44.9136 62.2568L44.9005 62.2419L44.8744 62.2108L44.8613 62.1959L44.857 62.1918L44.8483 62.181L44.8352 62.1661L44.8091 62.1349L44.796 62.12L44.783 62.1051L44.7743 62.0943L44.7699 62.0889L44.7569 62.0726L44.7438 62.0577L44.7307 62.0415L44.7177 62.0252L44.7046 62.0089L44.6916 61.994L44.6121 61.8938L44.5338 61.7922L44.4565 61.6892L44.3792 61.5849L44.3031 61.4806C44.253 61.4102 44.203 61.3397 44.1551 61.268C44.1061 61.1962 44.0582 61.123 44.0104 61.0499L43.9396 60.9401L43.87 60.829L43.8014 60.7166C43.7329 60.6028 43.6665 60.489 43.6023 60.3725L43.538 60.256L43.475 60.1382L43.4129 60.019C43.3715 59.939 43.3313 59.8591 43.2921 59.7792L43.2333 59.6573L43.1757 59.5354L43.1191 59.4121L43.0636 59.2875L43.0092 59.1628L42.9569 59.0368L42.9058 58.9095L42.8557 58.7822L42.8068 58.6535L42.7589 58.5234L42.7121 58.3934L42.6664 58.262L42.6217 58.1306L42.5793 57.9978L42.5379 57.8637C42.5107 57.7743 42.4835 57.6849 42.4585 57.5942L42.4204 57.4587L42.3834 57.3219L42.3486 57.185L42.3149 57.0469L42.2822 56.9087L42.2507 56.7692L42.2213 56.6296L42.193 56.4888L42.1658 56.3479L42.1397 56.2056L42.1157 56.0634L42.0929 55.9198L42.0711 55.7762L42.0504 55.6313L42.0319 55.4863L42.0145 55.34L41.9982 55.1937L41.9841 55.0474L41.971 54.8998L41.9601 54.7521L41.9503 54.6044L41.9416 54.4554L41.9351 54.3064L41.9296 54.1561L41.9253 54.0057L41.9231 53.8553L41.922 53.7036C41.922 50.4741 42.983 47.5373 44.6916 45.4105C44.9614 45.0745 45.2466 44.7602 45.5469 44.4663H37.618L37.6213 44.4608ZM45.5502 2.50339H23.1696C21.1302 2.50339 19.2748 3.54376 17.9297 5.2181C16.5847 6.89244 15.7489 9.20211 15.7489 11.7407C15.7489 14.2793 16.5847 16.589 17.9297 18.2633C19.2748 19.9377 21.1302 20.9781 23.1696 20.9781H37.6213H45.5502L45.5426 20.9699L45.5371 20.9645L45.4675 20.8954L45.4544 20.8832L45.4533 20.8819C45.3946 20.8236 45.3369 20.764 45.2803 20.7031L45.2748 20.6976L45.1943 20.6109L45.1932 20.6096C45.1388 20.5513 45.0855 20.4917 45.0333 20.4321L45.0246 20.4227L44.9408 20.3265L44.8624 20.2344L44.8581 20.2289L44.8494 20.2181C44.7982 20.1571 44.7471 20.0948 44.6959 20.0312L44.6165 19.9309L44.5382 19.8293L44.4608 19.7264L44.3836 19.6221L44.3074 19.5177C44.2574 19.4473 44.2073 19.3769 44.1594 19.3051C44.1104 19.2333 44.0626 19.1601 44.0147 19.087L43.9439 18.9772L43.8743 18.8662L43.8057 18.7537C43.7372 18.6399 43.6708 18.5261 43.6066 18.4096L43.5424 18.2931L43.4793 18.1753L43.4172 18.0561C43.3759 17.9762 43.3356 17.8962 43.2965 17.8163L43.2377 17.6944L43.18 17.5725L43.1235 17.4492L43.0679 17.3246L43.0135 17.1999L42.9613 17.074L42.9101 16.9466L42.8601 16.8193L42.8111 16.6906L42.7632 16.5606L42.7164 16.4305L42.6707 16.2991L42.6261 16.1677L42.5836 16.035L42.5423 15.9008C42.5151 15.8114 42.4879 15.722 42.4629 15.6313L42.4248 15.4958L42.3878 15.359L42.353 15.2222L42.3192 15.084L42.2866 14.9458L42.255 14.8063L42.2257 14.6668L42.1973 14.5259L42.1701 14.385L42.144 14.2428L42.1201 14.1005L42.0972 13.9569L42.0754 13.8133L42.0548 13.6684L42.0363 13.5234L42.0189 13.3771L42.0025 13.2308L41.9884 13.0845L41.9753 12.9369L41.9644 12.7892L41.9547 12.6416L41.946 12.4925L41.9394 12.3435L41.934 12.1932L41.9296 12.0428L41.9275 11.8924L41.9264 11.7407C41.9264 8.51124 42.9874 5.57437 44.6959 3.44758C44.9658 3.11162 45.2509 2.79734 45.5513 2.50339H45.5502ZM51.357 10.489H93.9559V2.50339H51.357C49.3176 2.50339 47.4622 3.54376 46.1172 5.2181C44.7721 6.89244 43.9363 9.20211 43.9363 11.7407L43.9375 11.8599L43.9396 11.9778L43.9429 12.0956L43.9472 12.2135L43.9527 12.3313L43.9592 12.4478L43.9668 12.5643L43.9755 12.6808L43.9853 12.796L43.9962 12.9111L44.0082 13.0263L44.0223 13.1414L44.0364 13.2552L44.0528 13.369L44.0702 13.4828L44.0887 13.5952L44.1083 13.7077L44.129 13.8187L44.1507 13.9298L44.1736 14.0409L44.1975 14.1506L44.2225 14.2604L44.2487 14.3701L44.2759 14.4785L44.3031 14.5868L44.3325 14.6938L44.3619 14.8009L44.3923 14.9065L44.4239 15.0122L44.4565 15.1179L44.4902 15.2222L44.5251 15.3265L44.561 15.4294L44.598 15.5324L44.6361 15.634L44.6753 15.7356L44.7144 15.8358L44.7547 15.9361L44.796 16.035L44.8385 16.1338L44.882 16.2314L44.9266 16.3289L44.9723 16.4251L45.018 16.5213L45.0648 16.6161L45.1127 16.7096L45.1617 16.803L45.2118 16.8952L45.2629 16.9873L45.3141 17.078L46.929 19.1357C47.0008 19.2021 47.0726 19.2671 47.1466 19.3308L47.2206 19.3931L47.2946 19.4554C47.3447 19.4961 47.3948 19.5367 47.4448 19.576C47.496 19.6153 47.546 19.6546 47.5982 19.6925C47.6494 19.7304 47.7016 19.767 47.7539 19.8036L47.8322 19.8578C47.8844 19.893 47.9378 19.9282 47.9911 19.9621L48.0716 20.0122L48.1522 20.061L48.2338 20.1097L48.3154 20.1571L48.3981 20.2032L48.4808 20.2479L48.5646 20.2913L48.6484 20.3332L48.7333 20.3739L48.8181 20.4132L48.9031 20.4511L48.989 20.4877L49.075 20.5243L49.162 20.5581L49.2491 20.592L49.3362 20.6245L49.4243 20.6557L49.5125 20.6855L49.6017 20.7139L49.6909 20.741L49.7802 20.7667L49.8705 20.7911L49.9608 20.8141L50.0522 20.8358L50.1436 20.8561L50.235 20.8738L50.3265 20.8914L50.4189 20.9063L50.5114 20.9198L50.604 20.932L50.6975 20.9428L50.7911 20.9523L50.8847 20.9604L50.9794 20.9672L51.074 20.9726L51.1687 20.9767L51.2634 20.9794L51.3592 20.9808H82.2346H86.2698H93.9592V12.9951H51.3603V10.4904L51.357 10.489ZM37.6213 31.4684H80.2202V23.4828H51.357H37.6213C35.582 23.4828 33.7265 24.5232 32.3814 26.1975C31.0364 27.8719 30.2007 30.1815 30.2007 32.7201L30.2017 32.8393L30.2039 32.9572L30.2072 33.0751L30.2115 33.1929L30.217 33.3108L30.2235 33.4273L30.2311 33.5438L30.2398 33.6603L30.2496 33.7754L30.2605 33.8905L30.2725 34.0057L30.2866 34.1208L30.3008 34.2346L30.3171 34.3484L30.3345 34.4622L30.353 34.5746L30.3726 34.6871L30.3932 34.7982L30.415 34.9092L30.4379 35.0203L30.4618 35.13L30.4869 35.2398L30.513 35.3495L30.5402 35.4579L30.5674 35.5662L30.5968 35.6733L30.6261 35.7803L30.6566 35.8859L30.6882 35.9916L30.7208 36.0973L30.7546 36.2016L30.7894 36.3059L30.8253 36.4088L30.8623 36.5118L30.9004 36.6134L30.9395 36.715L30.9788 36.8152L31.019 36.9155L31.0604 37.0144L31.1028 37.1133L31.1463 37.2108L31.1909 37.3083L31.2366 37.4045L31.2824 37.5007L31.3291 37.5955L31.377 37.6903L31.426 37.7838L31.4761 37.8759L31.5272 37.968L31.5783 38.0588L31.6306 38.1496L31.6839 38.239L31.7383 38.327L31.7928 38.4151L31.8482 38.5018L31.9048 38.5885L31.9625 38.6738L32.0202 38.7578L32.0789 38.8418L32.1388 38.9244L32.1987 39.0057L32.2596 39.087L32.3216 39.1669L32.3847 39.2455L32.4479 39.324L32.5121 39.4012L32.5774 39.4771L32.6427 39.5516L32.709 39.6261L32.7765 39.6993L32.8439 39.7711L32.9125 39.8429L32.9822 39.9133L33.0518 39.9824L33.1225 40.0501L33.1933 40.1179C33.2651 40.1842 33.337 40.2493 33.411 40.3129L33.4849 40.3752L33.5589 40.4375C33.609 40.4782 33.6591 40.5188 33.7091 40.5581C33.7603 40.5974 33.8103 40.6367 33.8626 40.6746C33.9137 40.7125 33.9659 40.7491 34.0182 40.7857L34.0965 40.8399C34.1488 40.8751 34.2021 40.9103 34.2554 40.9442L34.336 40.9943L34.4165 41.0431L34.4981 41.0918L34.5797 41.1393L34.6624 41.1853L34.7451 41.23L34.8289 41.2734L34.9127 41.3154L34.9976 41.356L35.0825 41.3953L35.1673 41.4332L35.2533 41.4698L35.3393 41.5064L35.4263 41.5402L35.5134 41.5741L35.6005 41.6066L35.6886 41.6378L35.7768 41.6676L35.866 41.696L35.9552 41.7231L36.0445 41.7488L36.1348 41.7732L36.2251 41.7963L36.3165 41.8179L36.4079 41.8383L36.4994 41.8559L36.5908 41.8735L36.6833 41.8884L36.7758 41.9019L36.8682 41.9141L36.9619 41.925L37.0554 41.9344L37.149 41.9426L37.2437 41.9493L37.3384 41.9548L37.4331 41.9588L37.5277 41.9615L37.6235 41.9629H51.3592H80.2224V33.9772H37.6235V31.4725L37.6213 31.4684ZM45.7515 17.777L45.8103 17.8597L45.8701 17.9423L45.93 18.0236L45.9909 18.1049L46.053 18.1848L46.1161 18.2633L46.1792 18.3419L46.2434 18.4191L46.3087 18.495L46.374 18.5695L46.4404 18.644L46.5078 18.7171L46.5753 18.7889L46.6439 18.8607L46.7135 18.9312L46.7832 19.0003L46.8539 19.068L46.9246 19.1357L45.7515 17.7757V17.777ZM45.7515 59.7345L45.8103 59.8171L45.8701 59.8998L45.93 59.981L45.9909 60.0623L46.053 60.1422L46.1161 60.2208L46.1792 60.2994L46.2434 60.3766L46.3087 60.4524L46.374 60.527L46.4404 60.6015L46.5078 60.6746L46.5753 60.7464L46.6439 60.8182L46.7135 60.8886L46.7832 60.9577L46.8539 61.0255L46.9246 61.0932L45.7515 59.7331V59.7345Z" fill="#FF6F0F"/>
</svg>
