<svg width="150" height="100" viewBox="0 0 150 100" fill="none" xmlns="http://www.w3.org/2000/svg">
<path d="M142.018 26.5301C140.724 26.5301 139.554 27.0506 138.709 27.8928C137.862 28.7349 137.339 29.8986 137.339 31.183C137.339 32.4693 137.862 33.633 138.709 34.4733C139.556 35.3154 140.726 35.836 142.018 35.836C143.311 35.836 144.481 35.3154 145.326 34.4733C146.173 33.6312 146.697 32.4675 146.697 31.183C146.697 29.8968 146.173 28.7331 145.326 27.8928C144.48 27.0506 143.309 26.5301 142.018 26.5301ZM7.98237 64.1622C6.6889 64.1622 5.5187 64.6828 4.67365 65.5249C3.82682 66.367 3.30336 67.5307 3.30336 68.8152C3.30336 70.1014 3.82682 71.2651 4.67365 72.1055C5.52049 72.9476 6.69069 73.4681 7.98237 73.4681C9.27585 73.4681 10.446 72.9476 11.2911 72.1055C12.1379 71.2633 12.6614 70.0997 12.6614 68.8152C12.6614 67.5289 12.1379 66.3652 11.2911 65.5249C10.4443 64.6828 9.27406 64.1622 7.98237 64.1622ZM2.33861 63.2029C3.41234 62.1351 4.78978 61.3712 6.33159 61.0478V0H143.668V23.4175C145.21 23.7408 146.588 24.5048 147.661 25.5725C149.107 27.0098 150 28.9943 150 31.1848C150 33.3772 149.107 35.3616 147.661 36.7971C146.588 37.8649 145.21 38.6288 143.668 38.9522V100H6.33159V76.5825C4.78978 76.2592 3.41234 75.4952 2.33861 74.4275C0.893283 72.9902 0 71.0057 0 68.8152C0 66.6228 0.893283 64.6384 2.33861 63.2029ZM9.63494 61.0478C11.1768 61.3712 12.5542 62.1351 13.6279 63.2029C14.2997 63.8709 14.8499 64.6561 15.2501 65.5249L28.3313 62.6184V62.5207C28.3313 60.3283 29.2246 58.3438 30.67 56.9083C32.1153 55.4711 34.1109 54.5828 36.3137 54.5828C37.9055 54.5828 39.3866 55.0465 40.6318 55.8442L41.9343 54.5348C41.1017 53.2823 40.6176 51.7811 40.6176 50.1679C40.6176 47.9756 41.5108 45.9911 42.9562 44.5556C44.4015 43.1183 46.3971 42.23 48.5999 42.23C50.8046 42.23 52.8001 43.1183 54.2437 44.5556C55.6247 45.9289 56.5037 47.805 56.5769 49.8836L68.6613 51.9729C69.0668 50.9656 69.6725 50.0613 70.4318 49.3062C71.8771 47.869 73.8727 46.9807 76.0755 46.9807C78.2801 46.9807 80.2757 47.869 81.7193 49.3062C82.5465 50.1288 83.1932 51.1308 83.5952 52.2501L103.235 49.5923C103.376 47.6291 104.235 45.8649 105.552 44.5538C106.997 43.1165 108.993 42.2282 111.196 42.2282C113.4 42.2282 115.396 43.1165 116.84 44.5538C116.884 44.5982 116.927 44.6409 116.97 44.687L134.507 33.8853C134.2 33.0414 134.033 32.1335 134.033 31.1848C134.033 28.9925 134.927 27.008 136.372 25.5725C137.446 24.5048 138.823 23.7408 140.365 23.4175V3.28495H9.63316V61.0496L9.63494 61.0478ZM15.9665 68.7175V68.8152C15.9665 71.0075 15.0732 72.992 13.6279 74.4275C12.5542 75.4952 11.1768 76.2592 9.63494 76.5825V96.715H140.367V38.9504C138.825 38.627 137.448 37.8631 136.374 36.7954C136.329 36.7509 136.286 36.7083 136.243 36.6639L118.707 47.4639C119.014 48.306 119.18 49.2156 119.18 50.1643C119.18 52.3567 118.287 54.3411 116.841 55.7766C115.396 57.2139 113.4 58.1022 111.198 58.1022C108.993 58.1022 106.997 57.2139 105.554 55.7766C104.727 54.9541 104.08 53.9521 103.678 52.8328L84.0382 55.4906C83.8971 57.4538 83.0378 59.2179 81.7211 60.5291C80.2757 61.9664 78.2801 62.8547 76.0773 62.8547C73.8727 62.8547 71.8771 61.9664 70.4335 60.5291C69.0525 59.1558 68.1735 57.2797 68.1003 55.201L56.016 53.1117C55.6104 54.1191 55.0048 55.0234 54.2455 55.7784C52.8001 57.2157 50.8046 58.104 48.6017 58.104C47.0099 58.104 45.5288 57.6403 44.2836 56.8426L42.9812 58.152C43.8137 59.4045 44.2979 60.9057 44.2979 62.5189C44.2979 64.7112 43.4046 66.6957 41.9593 68.1312C40.5139 69.5685 38.5183 70.4568 36.3155 70.4568C34.1109 70.4568 32.1153 69.5685 30.6717 68.1312C30 67.4632 29.4497 66.6779 29.0495 65.8092L15.9683 68.7157L15.9665 68.7175ZM112.85 62.3839V91.8134H109.547V62.3839H112.85ZM77.7281 67.1363V91.8134H74.4247V67.1363H77.7281ZM50.2507 62.3839V91.8134H46.9474V62.3839H50.2507ZM37.9645 75.362V91.8134H34.6611V75.362H37.9645ZM111.198 45.5132C109.904 45.5132 108.734 46.0337 107.889 46.8758C107.042 47.7179 106.519 48.8816 106.519 50.1661C106.519 51.4524 107.042 52.6161 107.889 53.4564C108.736 54.2985 109.906 54.819 111.198 54.819C112.491 54.819 113.661 54.2985 114.506 53.4564C115.353 52.6143 115.877 51.4506 115.877 50.1661C115.877 48.8798 115.353 47.7162 114.506 46.8758C113.659 46.0337 112.489 45.5132 111.198 45.5132ZM76.0755 50.2656C74.782 50.2656 73.6118 50.7861 72.7668 51.6283C71.92 52.4704 71.3965 53.6341 71.3965 54.9185C71.3965 56.2048 71.92 57.3685 72.7668 58.2088C73.6136 59.0509 74.7838 59.5715 76.0755 59.5715C77.369 59.5715 78.5392 59.0509 79.3842 58.2088C80.2311 57.3667 80.7545 56.203 80.7545 54.9185C80.7545 53.6323 80.2311 52.4686 79.3842 51.6283C78.5374 50.7861 77.3672 50.2656 76.0755 50.2656ZM48.5999 45.5132C47.3065 45.5132 46.1363 46.0337 45.2912 46.8758C44.4444 47.7179 43.9209 48.8816 43.9209 50.1661C43.9209 51.4524 44.4444 52.6161 45.2912 53.4564C46.138 54.2985 47.3082 54.819 48.5999 54.819C49.8934 54.819 51.0636 54.2985 51.9086 53.4564C52.7555 52.6143 53.2789 51.4506 53.2789 50.1661C53.2789 48.8798 52.7555 47.7162 51.9086 46.8758C51.0618 46.0337 49.8916 45.5132 48.5999 45.5132ZM36.3119 57.8677C35.0185 57.8677 33.8483 58.3883 33.0032 59.2304C32.1564 60.0725 31.6329 61.2362 31.6329 62.5207C31.6329 63.8069 32.1564 64.9706 33.0032 65.8109C33.85 66.653 35.0202 67.1736 36.3119 67.1736C37.6054 67.1736 38.7756 66.653 39.6207 65.8109C40.4675 64.9688 40.9909 63.8051 40.9909 62.5207C40.9909 61.2344 40.4675 60.0707 39.6207 59.2304C38.7738 58.3883 37.6036 57.8677 36.3119 57.8677Z" fill="#FF6F0F"/>
</svg>
