<svg width="100" height="76" viewBox="0 0 100 76" fill="none" xmlns="http://www.w3.org/2000/svg">
<path d="M19.7437 0.00133511H80.2577C85.6956 0.00133511 90.6315 2.21896 94.207 5.79439C97.7837 9.37116 100 14.3071 100 19.7437V61.5781C100 65.3164 98.4753 68.7089 96.0174 71.1682C93.5581 73.6275 90.1656 75.1509 86.4272 75.1509H84.7543C81.4259 75.1509 78.3618 73.9706 75.9867 71.968C73.6155 69.968 71.9373 67.1469 71.3765 63.8638L69.0708 50.3712C68.8665 49.1722 68.2563 48.1442 67.3952 47.4179C66.5367 46.6943 65.4219 46.267 64.2043 46.267H35.7971C34.5795 46.267 33.4646 46.6943 32.6061 47.4179C31.745 48.1442 31.1349 49.1722 30.9293 50.3698L28.6235 63.8625C28.0628 67.1469 26.3845 69.9666 24.0134 71.9666C21.6395 73.9693 18.5755 75.1495 15.2457 75.1495H13.5728C9.83447 75.1495 6.4406 73.6248 3.98265 71.1669C1.52471 68.7089 0 65.3151 0 61.5768V19.7423C0 14.3044 2.21764 9.36849 5.79308 5.79306C9.36851 2.21762 14.3058 0 19.7423 0L19.7437 0.00133511ZM70.6943 19.5901H87.6609V22.0587H70.6943V19.5901ZM29.3071 22.0587H22.0574V29.3084H19.5888V22.0587H12.3391V19.5901H19.5888V12.3405H22.0574V19.5901H29.3071V22.0587ZM80.2577 2.46996H19.7437C14.9867 2.46996 10.6689 4.40988 7.53808 7.53938C4.40857 10.6689 2.46862 14.988 2.46862 19.745V61.5794C2.46862 64.6368 3.71698 67.4139 5.72766 69.4259C7.73967 71.4379 10.5154 72.6849 13.5741 72.6849H15.247C17.9813 72.6849 20.4887 71.7223 22.4246 70.0894C24.3632 68.4539 25.7357 66.1442 26.1963 63.4499L28.502 49.9573C28.8077 48.1682 29.7236 46.6315 31.0174 45.5394C32.3138 44.4446 33.9853 43.7997 35.7984 43.7997H64.2056C66.0187 43.7997 67.6903 44.4446 68.9867 45.5394C70.2804 46.6302 71.1963 48.1682 71.5007 49.9573L73.8064 63.4499C74.267 66.1429 75.6395 68.4539 77.5781 70.0894C79.514 71.7223 82.0214 72.6849 84.7557 72.6849H86.4286C89.4847 72.6849 92.2617 71.4366 94.2737 69.4246C96.2857 67.4125 97.534 64.6355 97.534 61.5794V19.745C97.534 14.9893 95.5941 10.6702 92.4633 7.54072C89.3338 4.41121 85.0147 2.46996 80.259 2.46996H80.2577Z" fill="#FF6F0F"/>
</svg>
