<svg width="100" height="100" viewBox="0 0 100 100" fill="none" xmlns="http://www.w3.org/2000/svg">
<path d="M3.56505 96.7115H96.435V85.8531H90.911H89.0871H8.49707H3.56505V96.7115ZM66.6114 45.4555H77.5224V82.57H87.2611L85.6956 29.7541H13.7145L12.1488 82.57H31.0171V48.7386H23.6691V45.4537H34.5802V82.5682H52.4882V48.7369H45.1403V45.452H56.0513V82.5664H73.9593V48.7351H66.6114V45.4502V45.4555ZM19.6317 35.9633H79.7744V39.2481H19.6317V35.9633ZM13.3346 26.471H86.0715L90.4309 11.967H8.97523L13.3346 26.471ZM10.2034 28.3186L5.28874 11.9688H0V0H99.9981V11.9688H98.2165H94.1193L89.2047 28.3186L90.8146 82.5735H100V100H98.2185H0.00385993V82.5735H8.59734C9.13527 64.4898 9.67127 46.4042 10.2073 28.3204L10.2034 28.3186ZM3.56505 8.68391H4.30156H95.1046H96.433V3.28312H3.56312V8.68391H3.56505Z" fill="#FF6F0F"/>
</svg>
